<?xml version="1.0" encoding="UTF-8"?>
<svg version="1.1" xmlns="http://www.w3.org/2000/svg" width="2048" height="2048">
<path d="M0 0 C675.84 0 1351.68 0 2048 0 C2048 675.84 2048 1351.68 2048 2048 C1372.16 2048 696.32 2048 0 2048 C0 1372.16 0 696.32 0 0 Z " fill="#FDFDFD" transform="translate(0,0)"/>
<path d="M0 0 C31.52562604 -0.09120912 63.05121461 -0.16201732 94.57694171 -0.20426132 C98.29706292 -0.20926427 102.01718387 -0.21444155 105.73730469 -0.21972656 C106.47792791 -0.2207758 107.21855113 -0.22182505 107.98161748 -0.22290608 C119.98082895 -0.2403213 131.97996394 -0.27186511 143.97913 -0.30861118 C156.28723961 -0.34598959 168.5953091 -0.36822927 180.90347314 -0.37635398 C188.50107749 -0.38184822 196.09846565 -0.39921413 203.69600347 -0.43166587 C209.51736015 -0.45526746 215.33860529 -0.45782769 221.16001129 -0.45243073 C223.55137974 -0.4535344 225.9427561 -0.4615336 228.33407593 -0.4768219 C231.59100359 -0.49662909 234.846995 -0.49197254 238.10394287 -0.48101807 C239.05724668 -0.49266943 240.01055049 -0.5043208 240.9927423 -0.51632524 C247.38940592 -0.45789261 247.38940592 -0.45789261 250.54037857 1.90506363 C253.13954364 5.6355415 254 7.31904343 254 12 C254.66 12 255.32 12 256 12 C256.30292969 12.82242187 256.60585937 13.64484375 256.91796875 14.4921875 C259.22824893 20.64819561 261.67654539 26.58780757 264.69140625 32.4296875 C270.69950431 44.23066816 276.11623315 56.53510555 280.9375 68.875 C284.81040011 78.74087917 289.32620076 88.37173106 293.75 98 C295.24152604 101.2605453 296.63079349 104.53623153 297.9375 107.875 C300.90603437 115.42252867 304.31471316 122.80789085 308.0625 130 C309.74213092 133.29042451 311.02749232 136.66215462 312.3125 140.125 C314.62829415 146.29565645 317.42646123 152.06180531 320.44921875 157.90625 C322.63181132 162.26043971 324 165.07894549 324 170 C324.66 170 325.32 170 326 170 C326.23219238 170.5971582 326.46438477 171.19431641 326.70361328 171.80957031 C329.22839179 178.22158781 331.98984406 184.49310868 334.875 190.75 C338.22951188 198.07189087 341.49560236 205.41439032 344.6328125 212.83203125 C346.07213941 216.16715731 347.58829376 219.45869634 349.125 222.75 C351.22016221 227.24586892 353.17050697 231.75922772 354.9453125 236.390625 C357.84784617 243.57170831 361.17630936 250.56913727 364.5 257.5625 C364.87769531 258.36107422 365.25539063 259.15964844 365.64453125 259.98242188 C367.7014657 264.31894862 369.79773859 268.62843918 371.99023438 272.89819336 C373.42590707 275.88651693 374.69403818 278.95275575 376 282 C501.4 282.33 626.8 282.66 756 283 C756 314.35 756 345.7 756 378 C644.46 378 532.92 378 418 378 C423.89859741 392.17109705 423.89859741 392.17109705 430.4453125 405.796875 C432.4275187 409.88081742 434.1462079 414.05382191 435.875 418.25 C438.70511707 425.11702597 441.80743303 431.75178267 445.20605469 438.35351562 C447.79070517 443.43059912 449.83765601 448.61403709 451.80859375 453.9609375 C452.95125683 456.87566497 454.24980958 459.59573217 455.6875 462.375 C459.23388652 469.25645985 462.25418406 476.35383675 465.30932617 483.46435547 C468.12480084 490.01491812 471.02857888 496.51875077 474 503 C475.671308 506.66457349 477.33686967 510.3317074 479 514 C479.34111816 514.75055664 479.68223633 515.50111328 480.03369141 516.27441406 C481.21226955 518.86940227 482.38758131 521.4658531 483.5625 524.0625 C483.93858398 524.88935303 484.31466797 525.71620605 484.70214844 526.56811523 C486.96015549 531.56749325 489.06223806 536.60615033 491.07788086 541.70776367 C492.29183785 544.72546083 493.626657 547.67679084 495 550.625 C495.50789063 551.718125 496.01578125 552.81125 496.5390625 553.9375 C497.77407078 556.52639435 499.0551208 559.07885006 500.375 561.625 C502 565 502 565 502 568 C585.49 568 668.98 568 755 568 C755 599.02 755 630.04 755 662 C651.05 662.495 651.05 662.495 545 663 C545.99 664.65 546.98 666.3 548 668 C548.79000271 669.9425409 549.53738262 671.90275612 550.25 673.875 C553.78813093 683.28514944 558.08577658 692.315577 562.6875 701.25 C564.38454953 704.58349015 565.72039353 707.90090783 566.9375 711.4375 C568.68205688 716.4513281 571.02092495 720.90380823 573.625 725.51953125 C575.33150654 728.59803026 576.68308253 731.73633497 578 735 C580.91946454 742.12892503 583.94311501 749.20657789 587.0625 756.25 C587.39080811 756.99419189 587.71911621 757.73838379 588.05737305 758.50512695 C589.96485736 762.79303739 591.98717964 767.00002942 594.10522461 771.1875 C595.26718997 773.54123284 596.28063307 775.9361959 597.25 778.375 C597.75273437 779.62410156 597.75273437 779.62410156 598.265625 780.8984375 C599 783 599 783 599 785 C530.03 785 461.06 785 390 785 C382.04784992 769.09569983 382.04784992 769.09569983 378.875 762.25 C376.3827155 756.90354094 373.84249075 751.59811411 371.10546875 746.37109375 C370.15504543 744.33255328 369.37385186 742.32672071 368.609375 740.21484375 C367.06200052 736.012732 365.12166905 732.09576757 363.0625 728.125 C360.03602749 722.18681904 357.38229562 716.22720996 355 710 C352.90902912 704.80792737 350.42211599 699.88762164 347.76220703 694.96875 C344.09931345 688.19455854 340.93007069 681.55617444 338.30078125 674.30078125 C336.5081988 669.75203599 334.31248319 665.45035946 332.09057617 661.09936523 C329.71267526 656.44163852 327.4420248 651.74799493 325.25 647 C323.46733188 643.14003247 321.67500498 639.29167648 319.75 635.5 C318.34009722 632.68019444 317.0527589 629.85415888 315.83203125 626.94921875 C312.27988116 618.62751501 308.35015024 610.46882914 304.4375 602.3125 C303.96892578 601.33216797 303.50035156 600.35183594 303.01757812 599.34179688 C300.97718672 595.08123133 298.92484167 590.8308348 296.7890625 586.6171875 C295.33824345 583.73436245 294.07654706 580.835166 292.9375 577.8125 C291.9186365 575.19992785 290.94536302 572.90893837 289.5 570.5 C288.13359826 568.22266377 287.25146395 566.15996838 286.3125 563.6875 C284.49233933 558.99708596 282.33511363 554.54461372 280.0625 550.0625 C277.3220018 544.65691286 274.68060511 539.23373685 272.20703125 533.69921875 C270.84937432 530.66316393 269.45825434 527.6437245 268.0625 524.625 C267.5571875 523.53058594 267.051875 522.43617188 266.53125 521.30859375 C265.53394348 519.1536993 264.53407195 516.99998952 263.53125 514.84765625 C260.43375907 508.18310794 257.4337279 501.48441382 254.53540039 494.73120117 C252.8140913 490.74981376 250.95901382 486.86360554 249 482.99389648 C247.37526319 479.75433947 245.8465409 476.4707265 244.3125 473.1875 C242.12003019 468.50595664 239.92186081 463.82765491 237.69140625 459.1640625 C233.73871282 450.89102191 229.93675047 442.60182245 226.375 434.15234375 C225.10986967 431.25188871 223.75177048 428.44220842 222.3125 425.625 C219.15494692 419.43552593 216.26481078 413.13082699 213.375 406.8125 C212.90747314 405.79043457 212.43994629 404.76836914 211.95825195 403.71533203 C209.91462029 399.23541219 207.88598271 394.75072317 205.90625 390.2421875 C204.11312936 386.19289758 202.14501393 382.2523039 200.125 378.3125 C196.98140796 372.11282022 194.17644799 365.83044196 191.48828125 359.41796875 C189.4565966 354.75202631 187.15921154 350.23941323 184.85546875 345.703125 C180.30501118 336.69472852 176.13502867 327.48901214 171.9375 318.3125 C169.29843619 312.56568618 166.483051 306.92304724 163.61328125 301.2890625 C161.95255099 297.90326376 160.46883606 294.47285973 159 291 C156.09599489 284.53309787 153.09093032 278.13037831 149.875 271.8125 C147.62166201 267.3645047 145.71880352 262.88069179 143.9296875 258.23046875 C142.83513909 255.60447235 141.4598821 253.26408427 139.99609375 250.83203125 C138.38967734 247.87748499 137.2752026 244.73885851 136.06640625 241.60546875 C134.64937947 238.1433557 132.94204176 234.86088997 131.234375 231.53515625 C129.55050617 228.0768307 128.16458868 224.52664484 126.796875 220.93359375 C126.15665935 219.02854801 126.15665935 219.02854801 125 218 C124.4121875 219.3921875 124.4121875 219.3921875 123.8125 220.8125 C119.57371818 230.67694617 114.95042787 240.36248799 110.34375 250.05859375 C108.81545571 253.27648823 107.29419506 256.49751667 105.78125 259.72265625 C105.42844971 260.47466309 105.07564941 261.22666992 104.7121582 262.00146484 C104.0536417 263.4063628 103.39586443 264.81160762 102.73901367 266.21728516 C100.85688101 270.2306932 98.90726452 274.20102752 96.88574219 278.14624023 C95.98795832 280.0252019 95.25772484 281.91301418 94.5625 283.875 C92.46996302 289.66623749 89.52400229 295.04408015 86.70703125 300.5078125 C84.65604813 304.53405014 82.7453447 308.53020869 81.125 312.75 C79.31731234 317.40660342 77.1271014 321.80588344 74.85473633 326.25146484 C71.97148583 331.94460457 69.38723668 337.75706226 66.84082031 343.60742188 C65.01557708 347.7853264 63.08991206 351.88348625 61.02905273 355.95019531 C59.16396316 359.66532985 57.39995134 363.42868916 55.625 367.1875 C55.23070801 368.02120117 54.83641602 368.85490234 54.43017578 369.71386719 C51.7411073 375.40823596 49.08361532 381.11635063 46.45703125 386.83984375 C45.13482439 389.70757928 43.79466344 392.56636623 42.45043945 395.42382812 C42.15741943 396.04708984 41.86439941 396.67035156 41.5625 397.3125 C41.26754639 397.93962891 40.97259277 398.56675781 40.66870117 399.21289062 C38.87986855 403.04129488 37.17766731 406.89674185 35.52441406 410.78540039 C32.22461348 418.53146087 28.46059255 425.93487731 24.48339844 433.35449219 C22.0555712 437.91016187 19.89823587 442.4096047 18.1015625 447.25390625 C16.50705662 451.2288624 14.655474 455.07262624 12.8125 458.9375 C12.42763428 459.74517822 12.04276855 460.55285645 11.64624023 461.38500977 C10.01003818 464.81092329 8.36794035 468.23398566 6.72412109 471.65625 C5.47987214 474.24863388 4.23987645 476.84302275 3 479.4375 C2.61432861 480.23599365 2.22865723 481.0344873 1.83129883 481.85717773 C1.47447021 482.60427002 1.1176416 483.3513623 0.75 484.12109375 C0.43546875 484.7752124 0.1209375 485.42933105 -0.203125 486.10327148 C-1.02008719 488.0478117 -1.54298711 489.94372765 -2 492 C-2.66 492 -3.32 492 -4 492 C-4.12528076 492.73500732 -4.25056152 493.47001465 -4.37963867 494.22729492 C-4.96889891 496.86099368 -5.7588247 498.94114742 -6.92578125 501.36328125 C-7.50295898 502.57081055 -7.50295898 502.57081055 -8.09179688 503.80273438 C-8.49462891 504.63095703 -8.89746094 505.45917969 -9.3125 506.3125 C-9.70373047 507.12912109 -10.09496094 507.94574219 -10.49804688 508.78710938 C-12.35156261 512.64475821 -14.23894541 516.48233947 -16.171875 520.30078125 C-17.58372411 523.11219032 -18.83074237 525.9270465 -19.9375 528.875 C-21.63385067 533.21527222 -23.61586209 537.32887157 -25.734375 541.4765625 C-26.94905525 543.89842497 -28.07996295 546.34004052 -29.1875 548.8125 C-31.73474135 554.47483906 -34.39356488 560.08181275 -37.0625 565.6875 C-37.6980481 567.02421753 -37.6980481 567.02421753 -38.34643555 568.38793945 C-40.26842759 572.41830988 -42.20948151 576.43424526 -44.2265625 580.41796875 C-45.73197799 583.45864278 -46.8936017 586.4646293 -48.04296875 589.6484375 C-49.48996476 593.20391341 -51.27278203 596.58077198 -53.01733398 599.99780273 C-55.79578015 605.49018119 -58.35280622 611.0734219 -60.875 616.6875 C-61.46498779 617.99799316 -61.46498779 617.99799316 -62.06689453 619.33496094 C-63.49963778 622.53993025 -64.88903042 625.66709127 -66 629 C-66.66 629 -67.32 629 -68 629 C-68.17402344 630.08667969 -68.17402344 630.08667969 -68.3515625 631.1953125 C-69.01783246 634.07713077 -69.99918519 636.265121 -71.375 638.875 C-73.12808036 642.21983431 -74.70989462 645.58815284 -76.17871094 649.06787109 C-77.71859559 652.69053671 -79.33515253 656.27963748 -80.9375 659.875 C-81.27201172 660.62652344 -81.60652344 661.37804688 -81.95117188 662.15234375 C-82.627874 663.67264178 -83.30520329 665.19266081 -83.9831543 666.71240234 C-84.66314803 668.24218416 -85.3390718 669.77378134 -86.01098633 671.30712891 C-88.14149864 676.15630953 -90.40773293 680.90654181 -92.8125 685.625 C-95.68777565 691.3229101 -98.46413128 697.05441803 -101.13720703 702.85083008 C-102.97118477 706.81861984 -104.84352068 710.76582139 -106.7421875 714.703125 C-107.22776123 715.71109131 -107.71333496 716.71905762 -108.21362305 717.75756836 C-109.17075826 719.74143997 -110.13041284 721.72409878 -111.09301758 723.70532227 C-113.63447754 728.97902326 -115.98361802 734.26889034 -118.07983398 739.73583984 C-119.41416408 743.01909198 -121.03089026 746.14016251 -122.64453125 749.29296875 C-124.69504006 753.38807713 -126.57731739 757.55786706 -128.47265625 761.7265625 C-129.9206648 764.82996702 -131.43696281 767.88800067 -132.97583008 770.94677734 C-134.63609989 774.27523243 -136.22839206 777.63476568 -137.8125 781 C-138.15506836 781.72695068 -138.49763672 782.45390137 -138.85058594 783.20288086 C-141.546838 788.95881989 -144.10804797 794.76704898 -146.6315918 800.6003418 C-148.32200172 804.4944875 -150.09467581 808.31349496 -152.0390625 812.0859375 C-155.63593545 819.25044052 -158.75977585 826.6687666 -162 834 C-162.66 834 -163.32 834 -164 834 C-164.0825 834.825 -164.165 835.65 -164.25 836.5 C-165.00901136 840.04205303 -166.17108752 842.52920138 -167.84375 845.6953125 C-169.12549691 848.25014587 -170.18599983 850.84718877 -171.25 853.5 C-173.60403325 859.25349121 -176.31340944 864.77599786 -179.14550781 870.3046875 C-182.09367528 876.07854664 -184.62308851 881.96630159 -187 888 C-187.66 888 -188.32 888 -189 888 C-189.10054687 889.20269531 -189.10054687 889.20269531 -189.203125 890.4296875 C-190.25951291 895.16271963 -192.41034437 898.90824714 -194.75 903.125 C-198.08155907 909.28305238 -201.14342088 915.38150827 -203.72265625 921.8984375 C-205.37529307 925.91126206 -207.20900014 929.82668793 -209.0625 933.75 C-209.39137207 934.44754395 -209.72024414 935.14508789 -210.05908203 935.86376953 C-211.68430444 939.2906392 -213.34486216 942.69462453 -215.05859375 946.078125 C-216.85942597 949.65831965 -218.43918448 953.30815103 -220 957 C-221.1243456 959.48928917 -222.27871427 961.96408524 -223.4375 964.4375 C-223.74461914 965.09564697 -224.05173828 965.75379395 -224.36816406 966.43188477 C-225.94358035 969.7952405 -227.55246431 973.13418731 -229.25 976.4375 C-230.51241286 979.0074119 -231.54430325 981.38858249 -232.5 984.0625 C-233.66348475 987.30138999 -235.19070515 990.12654144 -236.9609375 993.0859375 C-238.61166647 996.12675403 -239.80399673 999.33177415 -241.05078125 1002.5546875 C-242.2872614 1005.7400232 -243.63771479 1008.86674402 -245 1012 C-245.66 1012 -246.32 1012 -247 1012 C-247.3403125 1013.3921875 -247.3403125 1013.3921875 -247.6875 1014.8125 C-248.91410141 1019.12735319 -250.79791787 1023.07614007 -252.69140625 1027.1328125 C-254.62037311 1031.35926525 -256.31879109 1035.67018265 -258 1040 C-258.66 1040 -259.32 1040 -260 1040 C-261.485 1044.95 -261.485 1044.95 -263 1050 C-263.66 1050 -264.32 1050 -265 1050 C-265.0825 1050.825 -265.165 1051.65 -265.25 1052.5 C-266.01995464 1056.09312165 -267.24498796 1058.68395534 -268.9453125 1061.8984375 C-270.58613715 1065.16793254 -271.77044721 1068.55725219 -273 1072 C-273.66 1072 -274.32 1072 -275 1072 C-275.16435547 1073.03447266 -275.16435547 1073.03447266 -275.33203125 1074.08984375 C-277.38378581 1083.02877444 -282.27977178 1091.71320575 -286.41796875 1099.84765625 C-288.25029774 1103.49874143 -290.01243479 1107.17808169 -291.75 1110.875 C-292.04382568 1111.49366943 -292.33765137 1112.11233887 -292.64038086 1112.74975586 C-294.36293068 1116.43353104 -295.78927825 1120.1185685 -297 1124 C-297.66 1124 -298.32 1124 -299 1124 C-299 1125.32 -299 1126.64 -299 1128 C-299.66 1128 -300.32 1128 -301 1128 C-301.0928125 1128.83144531 -301.185625 1129.66289063 -301.28125 1130.51953125 C-302.12799446 1134.61979928 -303.66034141 1137.95277141 -305.5 1141.6875 C-307.97437379 1146.74820519 -307.97437379 1146.74820519 -310 1152 C-310.66 1152 -311.32 1152 -312 1152 C-312.11730469 1152.55429688 -312.23460937 1153.10859375 -312.35546875 1153.6796875 C-313.08971463 1156.32297268 -314.14386478 1158.64300693 -315.3125 1161.125 C-317.73091388 1166.34849277 -319.91687289 1171.63507487 -322 1177 C-322.66 1177 -323.32 1177 -324 1177 C-324.11085938 1177.69222656 -324.22171875 1178.38445312 -324.3359375 1179.09765625 C-326.22143428 1187.3383863 -330.60482162 1195.32017612 -334.4375 1202.8125 C-337.55090151 1208.90784829 -340.19359557 1215.12019683 -342.69116211 1221.49145508 C-344.79760486 1226.79760486 -344.79760486 1226.79760486 -347 1229 C-349.65833646 1229.19325521 -352.21207517 1229.26046573 -354.87124634 1229.24050903 C-355.69374921 1229.24221788 -356.51625209 1229.24392673 -357.36367929 1229.24568737 C-360.13528081 1229.2489964 -362.90664323 1229.23795544 -365.67822266 1229.22705078 C-367.65878799 1229.22648697 -369.63935374 1229.22680263 -371.61991882 1229.22793579 C-377.01016068 1229.22851149 -382.40031419 1229.21672216 -387.79053545 1229.20278788 C-393.4186512 1229.19031657 -399.0467688 1229.18911287 -404.67489624 1229.18673706 C-415.338597 1229.18051168 -426.00225694 1229.16408658 -436.66593969 1229.14403808 C-448.80359708 1229.12171195 -460.94125638 1229.11069393 -473.07892919 1229.10064721 C-498.05264212 1229.07972125 -523.02631878 1229.04452477 -548 1229 C-544.40627559 1214.02614827 -536.01749378 1199.39893441 -529.5 1185.5 C-523.54202147 1172.7878154 -517.81483268 1159.97839183 -512.3125 1147.0625 C-508.40828761 1137.89970536 -504.30533075 1128.85191745 -500.03125 1119.85546875 C-496.62561133 1112.67510741 -493.32989103 1105.50104068 -490.3359375 1098.13671875 C-488.70543631 1094.30837824 -486.92044251 1090.56560593 -485.125 1086.8125 C-482.3691002 1081.0479308 -479.81806343 1075.24167921 -477.4375 1069.3125 C-474.8403321 1062.85559077 -471.91502486 1056.70151522 -468.7421875 1050.50390625 C-466.27048969 1045.53280102 -464.08942231 1040.45140432 -461.890625 1035.35546875 C-459.76909004 1030.4434566 -457.57459987 1025.5649526 -455.375 1020.6875 C-454.98803955 1019.82938721 -454.6010791 1018.97127441 -454.20239258 1018.0871582 C-453.13591927 1015.72432275 -452.06827935 1013.36201936 -451 1011 C-450.51402344 1009.92492188 -450.02804687 1008.84984375 -449.52734375 1007.7421875 C-447.90334707 1004.15999546 -446.27066933 1000.5825109 -444.61328125 997.015625 C-439.68936068 986.41821066 -434.93267571 975.75032205 -430.5 964.9375 C-426.81220959 956.02129621 -422.69711312 947.28134171 -418.3125 938.6875 C-416.25026874 934.62389021 -414.54673829 930.48039783 -412.8984375 926.234375 C-411.76050976 923.40439818 -410.36375881 920.72751762 -409 918 C-408.44089608 916.60277134 -407.8928338 915.20110806 -407.3515625 913.796875 C-404.45308835 906.49916708 -401.14267497 899.38727405 -397.875 892.25 C-397.2037073 890.77923976 -396.53264828 889.30837283 -395.86181641 887.83740234 C-394.52872229 884.91488236 -393.1945366 881.99286507 -391.859375 879.07128906 C-389.3563704 873.59292421 -386.86538346 868.10911117 -384.375 862.625 C-383.63288428 860.99215488 -382.89070047 859.35934069 -382.1484375 857.7265625 C-381.80079346 856.96134277 -381.45314941 856.19612305 -381.0949707 855.40771484 C-380.31085494 853.68353432 -379.5253802 851.95997156 -378.73901367 850.23681641 C-376.29944774 844.88583623 -373.89932336 839.5215489 -371.5625 834.125 C-368.96944075 828.16491829 -366.28339757 822.25553008 -363.5390625 816.36328125 C-361.45266969 811.80393047 -359.46553116 807.20329439 -357.47143555 802.60302734 C-355.72930214 798.60473625 -353.88262006 794.69779557 -351.8828125 790.82421875 C-350.8702247 788.73183599 -350.02881602 786.604419 -349.1875 784.4375 C-346.7011394 778.07476618 -343.74226213 771.9359173 -340.82861328 765.76171875 C-338.24831754 760.27573936 -335.75280255 754.75240211 -333.34765625 749.1875 C-330.18537597 741.87669236 -326.89494742 734.70477787 -323.2734375 727.60546875 C-321.90242962 724.80036981 -320.78480575 721.98473505 -319.75561523 719.04077148 C-318.97672891 716.93714925 -318.10220011 714.90571278 -317.18359375 712.859375 C-316.82942383 712.06893799 -316.47525391 711.27850098 -316.11035156 710.46411133 C-315.74393555 709.65095459 -315.37751953 708.83779785 -315 708 C-314.65163086 707.22615967 -314.30326172 706.45231934 -313.94433594 705.6550293 C-313.23163378 704.07382422 -312.51840668 702.49285565 -311.8046875 700.91210938 C-308.66505673 693.95771743 -305.54387554 686.99687916 -302.5 680 C-297.5622296 668.65314001 -292.46555843 657.37556808 -287.3125 646.125 C-285.4992774 642.15081348 -283.77260286 638.14462321 -282.0625 634.125 C-279.64655563 628.45278277 -277.09956482 622.85580339 -274.4921875 617.26953125 C-272.96987554 613.93399431 -271.5419416 610.56901198 -270.125 607.1875 C-267.92423694 601.98884711 -265.50928869 596.96158497 -262.9375 591.9375 C-259.92924694 586.05590262 -257.42058114 580.13633014 -255.13671875 573.9296875 C-254.10229097 571.26363653 -252.94345733 568.78451021 -251.625 566.25 C-248.94059709 561.07596158 -246.76459245 555.72820198 -244.58642578 550.32714844 C-242.50210056 545.16538545 -240.27871329 540.07860693 -238 535 C-237.36752489 533.570739 -236.73600367 532.14105549 -236.10546875 530.7109375 C-233.03070216 523.75476486 -229.9351086 516.81524803 -226.6875 509.9375 C-222.93728452 501.97045237 -219.41786725 493.9048081 -215.90698242 485.82983398 C-213.68753498 480.74488213 -211.40767182 475.72808893 -208.88769531 470.78540039 C-207.45899683 467.91189325 -206.23531671 464.96088966 -205 462 C-204.36613494 460.49208259 -203.73200345 458.98427715 -203.09765625 457.4765625 C-202.08041047 455.05248744 -201.06381679 452.62814608 -200.04882812 450.203125 C-193.93031511 435.63186857 -193.93031511 435.63186857 -190.6875 429.5 C-188.44026478 425.06719151 -186.54540398 420.54198371 -184.6875 415.9375 C-182.04706274 409.40092204 -179.17602585 403.02351365 -176.1262207 396.66894531 C-172.95677001 390.01804517 -170.09133167 383.24931505 -167.22412109 376.46386719 C-164.80235135 370.76917938 -162.16767182 365.24576547 -159.328125 359.74609375 C-157.36843611 355.69414877 -155.84949348 351.49932117 -154.27734375 347.28515625 C-152.11893237 341.7340126 -149.54692434 336.38119399 -147 331 C-143.35918216 323.27088951 -139.90572321 315.48658481 -136.5625 307.625 C-133.4108049 300.21407982 -130.12803748 292.89195564 -126.68359375 285.61328125 C-124.56131371 281.0585039 -122.5569525 276.45751473 -120.55859375 271.84741211 C-118.7218031 267.6200012 -116.82407504 263.42730149 -114.875 259.25 C-112.98966533 255.20002182 -111.19818792 251.13189672 -109.5 247 C-106.85895437 240.5751486 -103.93621208 234.29411418 -101 228 C-97.69704272 220.85030589 -94.55299061 213.6434029 -91.46484375 206.3984375 C-89.81426017 202.5690836 -88.09179121 198.77748892 -86.3515625 194.98828125 C-84.67425643 191.27978661 -83.05742027 187.54632839 -81.4375 183.8125 C-79.67845288 179.75831076 -77.92515546 175.73020597 -75.875 171.8125 C-74.21596472 168.60643182 -72.95219301 165.3182004 -71.6875 161.9375 C-69.62234567 156.44936816 -67.25471261 151.1613777 -64.72949219 145.87548828 C-62.45995521 141.08546769 -60.41788533 136.22835401 -58.4375 131.3125 C-55.20829953 123.3189202 -51.4487283 115.68102859 -47.453125 108.04296875 C-45.9635173 105.08903262 -45.9635173 105.08903262 -45.07446289 102.19140625 C-43.9978615 98.99364817 -42.73244674 95.97399857 -41.35546875 92.89453125 C-40.58686523 91.17073242 -40.58686523 91.17073242 -39.80273438 89.41210938 C-39.00319336 87.63030273 -39.00319336 87.63030273 -38.1875 85.8125 C-37.40536133 84.05969727 -37.40536133 84.05969727 -36.60742188 82.27148438 C-34.19023155 76.86072001 -31.756582 71.45797355 -29.296875 66.06640625 C-27.49386043 62.10801407 -25.75279005 58.13270221 -24.0625 54.125 C-21.59943062 48.33328646 -18.99474996 42.623344 -16.296875 36.9375 C-15.00094253 34.00213488 -13.96486508 31.05844026 -13 28 C-12.34 28 -11.68 28 -11 28 C-10.86980469 27.43023437 -10.73960937 26.86046875 -10.60546875 26.2734375 C-8.80348122 19.50726498 -5.61462287 13.06660577 -2.85546875 6.6484375 C-2.57973022 6.00608154 -2.3039917 5.36372559 -2.01989746 4.7019043 C-1.34698079 3.13443861 -0.67354438 1.56719606 0 0 Z " fill="#010101" transform="translate(899,409)"/>
<path d="M0 0 C0.92879246 -0.00250352 1.85758491 -0.00500704 2.81452259 -0.00758642 C4.358417 -0.00407467 4.358417 -0.00407467 5.93350118 -0.00049198 C7.0245103 -0.00194542 8.11551942 -0.00339886 9.23958942 -0.00489634 C12.93889623 -0.0085802 16.63816245 -0.00505893 20.33746904 -0.00163448 C22.99897993 -0.00278535 25.66048791 -0.00433138 28.321998 -0.00636172 C34.13103102 -0.0099842 39.94005477 -0.00985725 45.74908823 -0.00731456 C54.38703958 -0.00354383 63.02498304 -0.00545968 71.66293433 -0.00852287 C87.08687992 -0.01379858 102.51082137 -0.01332828 117.93476735 -0.01044396 C131.4315804 -0.00793228 144.92839193 -0.00726988 158.42520517 -0.0084666 C159.31911624 -0.00854299 160.21302731 -0.00861937 161.13402659 -0.00869807 C164.76233373 -0.00900939 168.39064088 -0.00932779 172.01894802 -0.00965784 C206.08139963 -0.01271944 240.14384861 -0.00993919 274.20629982 -0.00456094 C304.49676401 0.00018536 334.787224 -0.00024 365.07768816 -0.00502193 C399.07778972 -0.0103715 433.07788896 -0.01250276 467.07799089 -0.00940967 C470.69952732 -0.00908893 474.32106376 -0.00877609 477.94260019 -0.0084666 C478.83437183 -0.00838752 479.72614346 -0.00830845 480.64493848 -0.00822697 C494.13696797 -0.00708745 507.62899577 -0.00842358 521.12102503 -0.01094615 C536.45469687 -0.01379869 551.78836391 -0.01310497 567.12203515 -0.00766541 C575.71348114 -0.00471853 584.30491676 -0.00455265 592.89636249 -0.00831159 C598.62438531 -0.01054225 604.35239976 -0.0091798 610.08042133 -0.00480682 C613.35115823 -0.00241214 616.62187009 -0.00218787 619.8926071 -0.0052128 C623.40386838 -0.00821333 626.91507142 -0.00517591 630.42632955 -0.00049198 C631.45793365 -0.00283314 632.48953775 -0.00517431 633.55240259 -0.00758642 C634.47869152 -0.0050829 635.40498046 -0.00257938 636.35933876 0 C637.16359532 0.00006776 637.96785188 0.00013552 638.79647985 0.00020533 C640.6169948 0.12534916 640.6169948 0.12534916 641.6169948 1.12534916 C641.71756171 4.01140932 641.75314855 6.87357491 641.74638933 9.76011479 C641.74814165 10.66573658 641.74989397 11.57135838 641.75169939 12.50442326 C641.75611934 15.51350109 641.75317941 18.52252068 641.7498073 21.53159916 C641.7504803 23.61285742 641.75145029 25.69411559 641.75270647 27.77537358 C641.75418363 32.14350454 641.75202828 36.5116151 641.74736589 40.8797437 C641.7416686 46.49249469 641.7449475 52.10519788 641.75093836 57.71794713 C641.75454346 62.01746305 641.75340562 66.31696755 641.75081056 70.61648381 C641.75014115 72.68664378 641.7509702 74.75680477 641.75329012 76.82696354 C641.75581581 79.71486503 641.75197722 82.60268794 641.74638933 85.49058354 C641.74841356 86.3550359 641.75043779 87.21948826 641.75252336 88.11013615 C641.73125717 94.01108679 641.73125717 94.01108679 640.6169948 95.12534916 C638.03060442 95.22042738 635.4710092 95.25091292 632.88432878 95.23887455 C631.66979021 95.23909359 631.66979021 95.23909359 630.4307155 95.23931706 C627.74147971 95.2386177 625.05231231 95.23082426 622.36308855 95.22300541 C620.50363764 95.22114132 618.64418624 95.21971737 616.78473467 95.21871769 C611.88070384 95.21489187 606.97670244 95.20506104 602.07268327 95.19401371 C597.07248387 95.18380097 592.07227974 95.17922037 587.07207292 95.17417729 C577.25370059 95.16343883 567.43535014 95.14636164 557.6169948 95.12534916 C558.08505541 96.05467259 558.55311601 96.98399601 559.03536028 97.94148076 C559.66240806 99.19007526 560.28938807 100.43870379 560.9163112 101.68736088 C561.22327425 102.29637745 561.53023729 102.90539402 561.84650224 103.53286564 C565.09814433 110.01604983 568.05403827 116.61924447 570.9919948 123.25034916 C571.55675869 124.51856716 572.12186794 125.7866314 572.6873073 127.05454838 C573.80932381 129.57108488 574.93001582 132.08820375 576.04961199 134.60581791 C578.22608249 139.49304514 580.41954581 144.37252677 582.6169948 149.25034916 C582.95392351 149.99945561 583.29085222 150.74856205 583.63799089 151.5203687 C585.41458287 155.46785859 587.20279288 159.40976878 588.9998073 163.34800541 C590.85479217 167.42500425 592.67838764 171.51460959 594.4841823 175.61363041 C599.16914735 186.24747607 603.85544852 196.81617735 609.17558855 207.14878666 C611.17429852 211.27620401 612.7157097 215.53671433 614.30058855 219.83628666 C615.73342525 223.41625254 617.41238707 226.828035 619.1794948 230.25034916 C621.7553291 235.26849719 623.83217257 240.22331415 625.65996355 245.55113041 C626.95077853 249.02315927 628.62754698 252.23776597 630.3279323 255.52378666 C632.22490473 259.35222193 633.81333031 263.29468159 635.43340105 267.24644291 C637.78436882 272.96480346 640.30745971 278.55513252 643.1169948 284.06284916 C645.59971968 288.97531394 647.61917108 294.00116008 649.6169948 299.12534916 C652.51053711 306.36904692 655.67589408 313.37702282 659.21465105 320.32847416 C660.76516332 323.42086076 662.1767451 326.55264964 663.55840105 329.72300541 C664.8550496 332.66558424 666.20370724 335.58223559 667.5544948 338.50034916 C671.53895911 347.11675324 675.4730044 355.752278 679.3044948 364.43784916 C679.7510341 365.44295537 679.7510341 365.44295537 680.20659441 366.46836674 C680.49026872 367.11442875 680.77394304 367.76049077 681.06621355 368.42613041 C681.3171779 368.99500981 681.56814226 369.5638892 681.8267116 370.15000737 C682.87506538 372.77040603 683.73159277 375.44611942 684.6169948 378.12534916 C658.46171753 378.24203167 632.30647914 378.33026339 606.15099424 378.38441002 C594.00716712 378.41021692 581.86350149 378.44541501 569.719778 378.50254643 C559.1381457 378.55230519 548.55663031 378.58462207 537.97488427 378.59579164 C532.36929748 378.60232313 526.76404526 378.61772568 521.15856546 378.65399945 C515.88658786 378.68783992 510.61508387 378.69842631 505.34300798 378.69088757 C503.40433552 378.69226748 501.46564784 378.70227082 499.52706903 378.72137654 C496.88695562 378.74612829 494.24864782 378.74032061 491.60849565 378.72662175 C490.83515357 378.74118595 490.06181149 378.75575016 489.26503479 378.77075571 C487.12522978 378.74058831 487.12522978 378.74058831 483.6169948 378.12534916 C481.6980924 375.75427353 481.6980924 375.75427353 480.6169948 373.12534916 C479.97890886 371.80663823 479.97890886 371.80663823 479.3279323 370.46128666 C478.88707292 369.48417729 478.44621355 368.50706791 477.9919948 367.50034916 C475.4169963 361.8507256 472.78336934 356.23241433 470.1169948 350.62534916 C467.53985214 345.20341284 464.98577019 339.7738172 462.4919948 334.31284916 C460.42557137 329.80115802 458.23919749 325.36149056 455.9919948 320.93784916 C454.04766553 317.08731472 452.21244114 313.28193051 450.6794948 309.25034916 C448.98032644 304.80188264 446.90086218 300.61294036 444.7419948 296.37534916 C441.58916595 290.18587126 438.77795862 283.92161438 436.0935573 277.51206791 C434.65256273 274.20692959 433.07753803 271.01911336 431.4294948 267.81284916 C428.07832777 261.23655457 425.12050709 254.51889898 422.1794948 247.75034916 C417.95333653 238.03567367 413.47071653 228.54092073 408.6169948 219.12534916 C406.51404187 215.01641226 404.45437265 210.96634164 402.8669948 206.62534916 C401.05755024 201.97249173 398.87994302 197.56858084 396.6169948 193.12534916 C394.43809737 188.84657144 392.31844461 184.62203795 390.6169948 180.12534916 C388.98477004 175.84165014 386.99944084 171.77313836 384.9294948 167.68784916 C381.79131221 161.49363537 378.72802905 155.26950226 375.7419948 149.00034916 C375.1702553 147.81034306 375.1702553 147.81034306 374.5869655 146.59629643 C374.22820329 145.84018071 373.86944109 145.08406498 373.4998073 144.30503666 C373.02631853 143.31092778 373.02631853 143.31092778 372.54326433 142.29673588 C371.40251766 139.62256591 370.52505079 136.88610882 369.6169948 134.12534916 C368.22757173 134.12868008 368.22757173 134.12868008 366.81007951 134.13207829 C358.07055991 134.15213519 349.33104806 134.16735085 340.59151071 134.17716134 C336.09869332 134.18237458 331.60589498 134.18944392 327.11308855 134.20078862 C322.77536006 134.21167289 318.43764987 134.21763774 314.09990877 134.22022641 C312.44695937 134.22207067 310.79401094 134.22567204 309.14106935 134.23107922 C306.82166199 134.23836318 304.50232977 134.23933701 302.18291277 134.23887455 C300.20434786 134.24220547 300.20434786 134.24220547 298.18581194 134.24560368 C294.89814144 134.13482265 291.84131136 133.75423671 288.6169948 133.12534916 C288.6169948 134.77534916 288.6169948 136.42534916 288.6169948 138.12534916 C289.2769948 138.12534916 289.9369948 138.12534916 290.6169948 138.12534916 C291.18353777 139.45759526 291.18353777 139.45759526 291.76152605 140.81675541 C295.84132462 150.31600682 300.20754637 159.65832319 304.70805925 168.96543705 C307.12420804 173.96842427 309.4594025 178.99095083 311.69438738 184.07725346 C313.06839516 187.12741257 314.58896385 190.08666161 316.1169948 193.06284916 C318.07452441 196.92087799 319.9499418 200.76672846 321.4919948 204.81284916 C323.45356326 209.92998429 325.77668309 214.86081 328.1169948 219.81284916 C328.4971071 220.62133305 328.87721941 221.42981694 329.26885027 222.26280034 C330.99592676 225.89354371 332.76395132 229.45535479 334.7888698 232.93003666 C336.25415736 235.49115895 337.37533999 237.80544165 338.3669948 240.56284916 C340.48304462 246.06457871 343.11674752 251.26276428 345.79961199 256.50401127 C347.58255529 259.99811594 349.19106322 263.4670165 350.6169948 267.12534916 C354.00803841 274.64979998 357.56818817 282.0797993 361.3044948 289.43784916 C365.51560005 297.74323071 369.37088728 306.20766557 373.24663347 314.67344487 C375.94061517 320.54313637 378.67576632 326.37542447 381.6169948 332.12534916 C383.95149621 336.69802548 385.95064522 341.29364219 387.78496355 346.08628666 C388.81258493 348.60468273 390.18299085 350.81847324 391.6169948 353.12534916 C392.30954662 354.70832475 392.99853721 356.29312966 393.6560573 357.89097416 C395.4496114 362.061352 397.45266307 366.13915625 399.40996355 370.23472416 C400.6169948 373.12534916 400.6169948 373.12534916 400.6169948 376.12534916 C401.2769948 376.12534916 401.9369948 376.12534916 402.6169948 376.12534916 C402.6169948 376.78534916 402.6169948 377.44534916 402.6169948 378.12534916 C364.3369948 378.12534916 326.0569948 378.12534916 286.6169948 378.12534916 C278.15839607 362.26547655 278.15839607 362.26547655 275.6169948 355.12534916 C273.62810766 350.90159945 271.4631865 346.76660316 269.32402605 342.61753666 C267.29377649 338.63200061 265.39853771 334.6812161 263.8044948 330.50034916 C262.10882782 326.14295793 260.10399699 321.98014857 257.9919948 317.81284916 C254.70639519 311.3280098 251.50373501 304.80861718 248.3669948 298.25034916 C247.9549782 297.39529789 247.5429616 296.54024662 247.11845964 295.65928471 C239.6169948 279.92810175 239.6169948 279.92810175 239.6169948 276.12534916 C238.9569948 276.12534916 238.2969948 276.12534916 237.6169948 276.12534916 C237.2148073 274.97872807 237.2148073 274.97872807 236.8044948 273.80894291 C234.52161804 267.56857915 232.00984702 261.74638308 228.8044948 255.93784916 C225.38236672 249.7324118 222.4471514 243.40438201 219.62651628 236.90586674 C217.36460355 231.72474756 214.93520627 226.66115187 212.3669948 221.62534916 C209.90555633 216.79104672 207.67340132 211.96091629 205.7419948 206.89097416 C204.16385077 203.01137009 202.39585156 199.22887532 200.6169948 195.43784916 C200.11812761 194.36772587 200.11812761 194.36772587 199.6091823 193.27598393 C198.00797894 189.88721669 196.34257227 186.58422251 194.45683855 183.34409916 C193.08663257 180.94696599 192.02768191 178.90420702 191.1794948 176.31284916 C189.10843254 170.5026799 186.17751092 165.10965945 183.32402605 159.65269291 C181.08226145 155.30022073 179.13476288 150.99134009 177.4919948 146.37534916 C177.1619948 145.46527104 176.8319948 144.55519291 176.4919948 143.61753666 C175.78132295 141.59339096 175.12785369 139.54922783 174.4919948 137.50034916 C172.89578238 134.96356203 172.89578238 134.96356203 170.59697443 134.67889327 C164.60189923 134.20763968 158.65794822 133.98495466 152.64479631 134.00509465 C151.21702905 134.00381301 151.21702905 134.00381301 149.760418 134.00250548 C146.59914656 134.00086998 143.43792924 134.0063402 140.27666277 134.01182377 C137.99935463 134.01210609 135.72204641 134.01194705 133.44473833 134.01138127 C127.28229587 134.01109502 121.11987299 134.01696385 114.95743507 134.02395523 C108.50990041 134.03021752 102.06236528 134.03079484 95.61482805 134.03198063 C84.79946573 134.03473298 73.9841114 134.04097406 63.16875261 134.04990971 C52.03301078 134.05910044 40.89727091 134.06617314 29.76152605 134.07041752 C29.0741573 134.07068025 28.38678856 134.07094297 27.67859046 134.07121366 C24.22997636 134.07251877 20.78136224 134.07378246 17.33274812 134.07502556 C-11.23917449 134.0853782 -39.81108956 134.10305379 -68.3830052 134.12534916 C-66.90766058 130.40014318 -65.3226621 126.75901991 -63.6330052 123.12534916 C-63.10964583 121.99741948 -62.58628645 120.86948979 -62.0470677 119.70738041 C-61.49792708 118.5253101 -60.94878645 117.34323979 -60.3830052 116.12534916 C-59.25655137 113.68851768 -58.13233081 111.25066417 -57.0080052 108.81284916 C-56.1330052 106.91701583 -55.2580052 105.0211825 -54.3830052 103.12534916 C-53.7230052 103.12534916 -53.0630052 103.12534916 -52.3830052 103.12534916 C-52.29534895 102.29261479 -52.2076927 101.45988041 -52.1173802 100.60191166 C-51.24008694 96.44876802 -49.61017054 93.22419062 -47.6330052 89.50034916 C-45.18991299 84.7698308 -42.86248885 80.07405829 -40.8830052 75.12534916 C-39.06884541 70.63485463 -37.02028928 66.31183787 -34.8205052 62.00034916 C-30.50203945 53.53293544 -26.54625059 44.90559292 -22.59565169 36.26157963 C-20.24164384 31.11814052 -17.86201489 26.00279093 -15.30341536 20.9578687 C-13.70373566 17.77293612 -12.20080695 14.54318081 -10.6955052 11.31284916 C-10.23434309 10.33155034 -10.23434309 10.33155034 -9.76386458 9.33042729 C-8.49789194 6.61842027 -7.33042254 3.96760117 -6.3830052 1.12534916 C-4.02471436 -0.05379626 -2.62976994 0.00022154 0 0 Z " fill="#010101" transform="translate(1013.3830052018166,1260.874650835991)"/>
<path d="M0 0 C0.66 0 1.32 0 2 0 C2.4125 0.969375 2.825 1.93875 3.25 2.9375 C6.31578492 10.07750437 9.48683488 17.13033353 13 24.0625 C17.93192182 33.79618255 22.53840407 43.65416269 26.92895508 53.64355469 C30.0364139 60.71150024 33.2803849 67.66144655 36.78881836 74.53881836 C39.86321262 80.61566086 42.68479243 86.7996053 45.5 93 C48.89443704 100.47054618 52.36516331 107.87680018 56.07983398 115.19311523 C60.22803339 123.37820278 64.10243575 131.693476 68 140 C68.59110308 141.25522847 69.18224588 142.51043823 69.7734375 143.765625 C72.39405502 149.35135435 74.98172242 154.94868989 77.515625 160.57421875 C78.17800171 162.04217896 78.17800171 162.04217896 78.85375977 163.53979492 C79.72203182 165.46690432 80.58726377 167.39538728 81.44897461 169.32543945 C83.20105305 173.21454127 84.95377982 177.03724591 87.11328125 180.71875 C89.0429993 184.07478139 90.51908704 187.42459889 92 191 C93.46115449 194.34139433 94.94921623 197.67061727 96.4375 201 C96.81970703 201.86367188 97.20191406 202.72734375 97.59570312 203.6171875 C99.28391227 207.38914546 100.98040849 211.07309791 103.09765625 214.625 C104.84676245 217.72813708 106.04297782 220.64958053 107.23144531 223.98242188 C108.52088323 227.3674012 110.20864465 230.53839186 111.875 233.75 C114.76397579 239.41236629 117.34544408 245.10489826 119.72265625 251.00390625 C121.44609818 255.04635262 123.42502336 258.94670486 125.41430664 262.86206055 C127.63134219 267.23285664 129.69854606 271.64984138 131.703125 276.12109375 C138.16437796 290.46429687 144.97690516 304.66251668 151.80859375 318.83203125 C160.73116855 337.35643418 160.73116855 337.35643418 164.5859375 346.76953125 C165.74410894 349.4154091 166.97201538 351.97088302 168.2734375 354.546875 C171.41716233 360.77411572 174.33382161 367.10124474 177.25 373.4375 C178.06210938 375.19223633 178.06210938 375.19223633 178.890625 376.98242188 C179.40625 378.10068359 179.921875 379.21894531 180.453125 380.37109375 C181.15163574 381.8859436 181.15163574 381.8859436 181.86425781 383.43139648 C183 386 183 386 184 389 C169.05771291 389.07004597 154.11543853 389.12296649 139.17302227 389.15543652 C132.23516544 389.17091289 125.29741055 389.19201698 118.35961914 389.22631836 C111.66825262 389.25938564 104.97701405 389.27683755 98.28556252 389.28463173 C95.72859845 389.29018844 93.17164039 389.30103885 90.6147213 389.31719017 C87.0420907 389.33886639 83.46990223 389.34197099 79.8972168 389.34057617 C78.83266769 389.351362 77.76811859 389.36214783 76.67131042 389.3732605 C75.69955872 389.36913651 74.72780701 389.36501251 73.72660828 389.36076355 C72.88132411 389.36352893 72.03603994 389.36629431 71.16514111 389.36914349 C68.46300465 388.90844554 67.66622771 388.14090967 66 386 C64.69179157 383.51244306 63.47675553 381.0521259 62.3125 378.5 C61.99216797 377.82324219 61.67183594 377.14648438 61.34179688 376.44921875 C59.96305234 373.4683084 59 371.32224796 59 368 C58.34 368 57.68 368 57 368 C56.61328125 367.07058594 56.2265625 366.14117188 55.828125 365.18359375 C52.71363224 357.53946523 52.71363224 357.53946523 48.875 350.25 C46.82285258 346.69294448 45.40861608 343.0958689 43.93359375 339.2734375 C43.02615922 336.90174981 43.02615922 336.90174981 41.5 334.5 C40.05463698 332.09106163 39.0813635 329.80007215 38.0625 327.1875 C36.28458558 322.63577173 34.24147486 318.3373994 32 314 C25.00240146 300.32579369 25.00240146 300.32579369 23.3125 295.5625 C22.12010269 292.32599302 20.72730197 289.71216995 18.96875 286.78125 C17.9421533 284.89363672 17.21635373 283.02447792 16.5 281 C15.3415054 277.7311666 13.82467017 274.89431762 12.03515625 271.9140625 C10.39157127 268.87498084 9.25000408 265.65020825 8.01171875 262.4296875 C7.08384573 260.20135923 6.04403221 258.19681952 4.8125 256.125 C3.31688924 253.54636076 2.65005238 251.81689366 2 249 C1.34 248.67 0.68 248.34 0 248 C-0.28875 249.051875 -0.5775 250.10375 -0.875 251.1875 C-1.77225193 254.22818711 -2.76423419 257.08712344 -4 260 C-4.66 260 -5.32 260 -6 260 C-6.061875 260.78375 -6.12375 261.5675 -6.1875 262.375 C-7.07463416 266.33298319 -8.54001421 269.31157519 -10.40625 272.88671875 C-12.74441441 277.45416246 -14.88991422 282.10853245 -17.05688477 286.7590332 C-18.70225804 290.27849772 -20.37998009 293.77286184 -22.13671875 297.23828125 C-23.51207156 299.96958272 -24.71064354 302.68305837 -25.75 305.5625 C-27.5038727 310.07941819 -29.68184099 314.25639294 -32 318.5 C-34.64837345 323.35134955 -36.94457767 328.1276695 -38.890625 333.30859375 C-40.32935449 336.79903254 -42.03552126 340.1396379 -43.75 343.5 C-46.68522861 349.26024924 -49.41450886 355.07465065 -52 361 C-54.84524993 367.51739625 -57.8967169 373.88494774 -61.12963867 380.21801758 C-63.91272435 385.7130403 -66.33916213 391.31411741 -68.67578125 397.01171875 C-69.92909338 399.83998949 -71.40092741 402.35805398 -73 405 C-73.59725398 406.42341146 -74.15935253 407.86202671 -74.6875 409.3125 C-76.46890716 413.90200319 -78.5781135 418.24556018 -80.8125 422.625 C-83.55849425 428.01453078 -86.12314271 433.43782591 -88.5 439 C-91.10773508 445.0884299 -93.94596337 451.01620974 -96.94482422 456.92089844 C-99.7877614 462.52997373 -102.47159477 468.20486448 -105.12939453 473.90356445 C-107.55041068 479.08141513 -110.07171345 484.2003111 -112.67578125 489.2890625 C-113.9068936 491.8093928 -115.02211172 494.35983945 -116.11401367 496.94287109 C-118.42362355 502.30544283 -120.90138046 507.59596195 -123.328125 512.90625 C-125.61185372 517.9139443 -127.85912222 522.9295 -130 528 C-130.66 528 -131.32 528 -132 528 C-132.13148438 528.96679688 -132.13148438 528.96679688 -132.265625 529.953125 C-133.27040555 534.12189537 -134.9858937 537.85183578 -136.75 541.75 C-137.11053467 542.55550293 -137.47106934 543.36100586 -137.8425293 544.19091797 C-140.00685136 548.97286382 -142.3273011 553.58321664 -144.9765625 558.1171875 C-146.69821113 561.28449529 -147.81003945 564.60011271 -149 568 C-149.66066719 569.66905395 -150.32438252 571.3369416 -151 573 C-151.66 573 -152.32 573 -153 573 C-153.10441406 573.6909375 -153.20882812 574.381875 -153.31640625 575.09375 C-154.1192708 578.5070713 -155.42282409 581.33521834 -156.9375 584.5 C-157.24179932 585.14090576 -157.54609863 585.78181152 -157.85961914 586.44213867 C-158.90046394 588.63098545 -159.94967971 590.81568514 -161 593 C-162.6482466 596.43634855 -164.29382858 599.87396077 -165.9375 603.3125 C-166.36458252 604.20477295 -166.79166504 605.0970459 -167.23168945 606.01635742 C-170.30654982 612.46860943 -173.22862438 618.9766283 -176.0925293 625.5246582 C-178.63040356 631.28107993 -181.40716377 636.89251114 -184.26855469 642.49389648 C-186.53605738 646.96578932 -188.5019168 651.46790147 -190.2109375 656.1796875 C-191 658 -191 658 -193 660 C-193.73332626 661.93067817 -194.46273835 663.86305353 -195.16113281 665.80664062 C-196.4789167 669.25220829 -198.17784164 672.47911298 -199.875 675.75 C-202.83120185 681.54339831 -205.48788118 687.37615109 -207.92578125 693.41015625 C-209.11997193 696.28924141 -210.47478015 699.0401607 -211.90234375 701.80859375 C-213.33797169 704.67474064 -214.66497697 707.58570161 -216 710.5 C-217.96272811 714.78141698 -219.98656037 719.01331955 -222.12109375 723.2109375 C-223.53595724 726.09097075 -224.76605495 729.03853188 -226 732 C-226.66 732 -227.32 732 -228 732 C-228.11214844 732.88171875 -228.22429687 733.7634375 -228.33984375 734.671875 C-229.0000123 738.00006201 -229.96647397 740.27539018 -231.5625 743.25 C-234.26667109 748.46332983 -236.70652836 753.74571664 -239.0625 759.125 C-241.48478045 764.63693546 -243.96601037 770.08081748 -246.71875 775.4375 C-248.71606842 779.43213685 -250.56614418 783.49574566 -252.41430664 787.5612793 C-253.86128108 790.70726007 -255.39164842 793.74358986 -257.1328125 796.73828125 C-258.78282496 799.6206252 -259.91754303 802.39066732 -261.02734375 805.5078125 C-262.33654367 808.86230869 -263.84911673 812.1152141 -265.375 815.375 C-265.65512939 815.97505859 -265.93525879 816.57511719 -266.22387695 817.19335938 C-268.72837208 822.51018052 -271.36969932 827.73939865 -274 833 C-312.28 833 -350.56 833 -390 833 C-382.22222222 815.22222222 -382.22222222 815.22222222 -377.67578125 807.2578125 C-376.32577454 804.63332394 -375.21997742 802.10815793 -374.15234375 799.3671875 C-371.82765664 793.42341681 -369.0515973 787.73086344 -366.25 782 C-362.2353891 773.72208009 -358.34608267 765.41302822 -354.66162109 756.98339844 C-352.41538068 751.8663705 -349.96499548 746.88310943 -347.421875 741.90625 C-345.86842046 738.7310572 -344.49075022 735.51017793 -343.125 732.25 C-340.74263496 726.59880851 -338.10987455 721.1448954 -335.32177734 715.68481445 C-331.60485069 708.34112681 -328.22945118 700.84314024 -324.85668945 693.33642578 C-321.12463769 685.08419554 -321.12463769 685.08419554 -318.8125 681.15625 C-317.08963822 678.15609414 -315.89657771 675.3182673 -314.75 672.0625 C-312.57851594 666.24531333 -309.9798632 660.808793 -307.15332031 655.29516602 C-304.59210146 650.26761038 -302.25544765 645.17129659 -300 640 C-297.51473047 634.31852031 -294.92920052 628.71878552 -292.125 623.1875 C-285.32007245 609.7632952 -278.89804913 596.16334412 -272.828125 582.39160156 C-268.5573138 572.70446805 -264.09986354 563.13099985 -259.3125 553.6875 C-253.5447192 542.28289492 -248.31972114 530.61800827 -243 519 C-231.19808974 493.2252108 -231.19808974 493.2252108 -225.7277832 482.49194336 C-223.14120306 477.38051367 -220.83165744 472.17130606 -218.56420898 466.91186523 C-212.60584047 453.09645531 -205.95048647 439.58643574 -199.44824219 426.02148438 C-195.72315653 418.24979521 -192.0031118 410.47569992 -188.2890625 402.69873047 C-187.45630075 400.95529327 -186.62300506 399.21211097 -185.7890625 397.46923828 C-181.16960881 387.80985209 -176.67312445 378.10585686 -172.29980469 368.33251953 C-167.81450618 358.32340641 -163.1260656 348.41473744 -158.37109375 338.53125 C-153.11332232 327.59615506 -147.98414434 316.62117341 -143.03515625 305.54296875 C-137.67862719 293.55739256 -131.97383733 281.73672014 -126.26245117 269.91723633 C-125.7697876 268.89525146 -125.27712402 267.8732666 -124.76953125 266.8203125 C-124.33229736 265.91555176 -123.89506348 265.01079102 -123.44458008 264.07861328 C-122.29181535 261.62190157 -121.1767165 259.15725848 -120.07983398 256.67553711 C-118.10347847 252.20857609 -116.04428052 247.78528134 -113.953125 243.37109375 C-113.57822937 242.57832535 -113.20333374 241.78555695 -112.81707764 240.96876526 C-112.02768824 239.30045067 -111.2377438 237.63239859 -110.44726562 235.96459961 C-109.26487658 233.46890039 -108.08546327 230.97181039 -106.90625 228.47460938 C-102.89888866 220.00444872 -98.83559846 211.56896417 -94.61004639 203.20518494 C-90.96587401 195.99017435 -87.6721254 188.67218667 -84.625 181.1875 C-82.54384459 176.14069812 -80.19502744 171.27742954 -77.72265625 166.41162109 C-75.30128118 161.63771907 -73.01127187 156.80907974 -70.76391602 151.95117188 C-69.14122469 148.44526333 -67.5037278 144.94752087 -65.83984375 141.4609375 C-62.09894423 133.62178433 -58.42471782 125.76817251 -54.9375 117.8125 C-51.23841605 109.39335933 -47.17888284 101.18932702 -43 93 C-37.10229294 81.5099007 -37.10229294 81.5099007 -32.0625 69.62890625 C-30.6546741 66.14557232 -29.04682751 62.76896122 -27.4375 59.375 C-25.04429437 54.32239665 -22.83331795 49.28426938 -21 44 C-20.34 44 -19.68 44 -19 44 C-18.89945313 43.47921875 -18.79890625 42.9584375 -18.6953125 42.421875 C-17.76924588 39.19624971 -16.32559246 36.26406539 -14.875 33.25 C-11.64190074 26.43327522 -8.58297197 19.55264903 -5.578125 12.6328125 C-3.74387 8.41039382 -1.87665367 4.20370422 0 0 Z " fill="#010101" transform="translate(1023,805)"/>
<path d="M0 0 C3.67767221 -0.0016203 7.35533826 -0.00517903 11.03300858 -0.00918579 C16.79131024 -0.01497869 22.5495853 -0.01531154 28.30788803 -0.01093674 C30.41791901 -0.00994171 32.5279514 -0.01052357 34.63798141 -0.01277542 C37.5029922 -0.01530326 40.36792434 -0.01156287 43.23292923 -0.00601196 C44.07181718 -0.00803871 44.91070513 -0.01006546 45.77501392 -0.01215363 C49.06103214 -0.00002102 51.71890696 0.07679767 54.85866165 1.12338257 C54.85866165 1.78338257 54.85866165 2.44338257 54.85866165 3.12338257 C54.19866165 3.12338257 53.53866165 3.12338257 52.85866165 3.12338257 C52.85866165 4.11338257 52.85866165 5.10338257 52.85866165 6.12338257 C52.19866165 6.12338257 51.53866165 6.12338257 50.85866165 6.12338257 C50.85866165 5.13338257 50.85866165 4.14338257 50.85866165 3.12338257 C50.19866165 3.12338257 49.53866165 3.12338257 48.85866165 3.12338257 C48.52866165 4.11338257 48.19866165 5.10338257 47.85866165 6.12338257 C47.52866165 5.46338257 47.19866165 4.80338257 46.85866165 4.12338257 C45.93053665 4.43275757 45.93053665 4.43275757 44.98366165 4.74838257 C44.28241165 4.87213257 43.58116165 4.99588257 42.85866165 5.12338257 C41.86866165 4.13338257 41.86866165 4.13338257 40.85866165 3.12338257 C40.19866165 3.45338257 39.53866165 3.78338257 38.85866165 4.12338257 C36.85911419 4.16592613 34.85824529 4.1641904 32.85866165 4.12338257 C31.86866165 4.12338257 30.87866165 4.12338257 29.85866165 4.12338257 C28.86866165 3.79338257 27.87866165 3.46338257 26.85866165 3.12338257 C26.85866165 3.78338257 26.85866165 4.44338257 26.85866165 5.12338257 C25.86866165 4.62838257 25.86866165 4.62838257 24.85866165 4.12338257 C23.5300524 3.77169188 22.19707838 3.4356798 20.85866165 3.12338257 C20.52866165 3.78338257 20.19866165 4.44338257 19.85866165 5.12338257 C19.19866165 5.12338257 18.53866165 5.12338257 17.85866165 5.12338257 C17.52866165 4.46338257 17.19866165 3.80338257 16.85866165 3.12338257 C16.19866165 3.12338257 15.53866165 3.12338257 14.85866165 3.12338257 C14.52866165 3.78338257 14.19866165 4.44338257 13.85866165 5.12338257 C11.85866165 4.12338257 11.85866165 4.12338257 10.85866165 3.12338257 C10.52866165 4.11338257 10.19866165 5.10338257 9.85866165 6.12338257 C9.52866165 5.46338257 9.19866165 4.80338257 8.85866165 4.12338257 C7.90991165 4.28838257 6.96116165 4.45338257 5.98366165 4.62338257 C3.4814344 5.02373893 1.36393685 5.12338257 -1.14133835 5.12338257 C-1.47133835 4.46338257 -1.80133835 3.80338257 -2.14133835 3.12338257 C-2.80133835 3.78338257 -3.46133835 4.44338257 -4.14133835 5.12338257 C-7.75887938 5.50417636 -10.02535047 4.9698939 -13.14133835 3.12338257 C-13.14133835 3.78338257 -13.14133835 4.44338257 -13.14133835 5.12338257 C-13.71883835 4.93775757 -14.29633835 4.75213257 -14.89133835 4.56088257 C-17.11348329 3.95385975 -17.11348329 3.95385975 -19.14133835 4.68588257 C-21.76607041 5.26004271 -22.89856397 4.48506701 -25.14133835 3.12338257 C-25.80133835 3.78338257 -26.46133835 4.44338257 -27.14133835 5.12338257 C-27.14133835 4.46338257 -27.14133835 3.80338257 -27.14133835 3.12338257 C-29.78133835 3.78338257 -32.42133835 4.44338257 -35.14133835 5.12338257 C-35.14133835 4.46338257 -35.14133835 3.80338257 -35.14133835 3.12338257 C-36.13133835 3.12338257 -37.12133835 3.12338257 -38.14133835 3.12338257 C-38.80133835 3.78338257 -39.46133835 4.44338257 -40.14133835 5.12338257 C-40.14133835 4.46338257 -40.14133835 3.80338257 -40.14133835 3.12338257 C-40.73946335 3.28838257 -41.33758835 3.45338257 -41.95383835 3.62338257 C-45.12576296 4.34839391 -47.04217341 4.15643755 -50.14133835 3.12338257 C-50.47133835 3.78338257 -50.80133835 4.44338257 -51.14133835 5.12338257 C-51.14133835 4.46338257 -51.14133835 3.80338257 -51.14133835 3.12338257 C-51.80133835 3.12338257 -52.46133835 3.12338257 -53.14133835 3.12338257 C-53.14133835 3.78338257 -53.14133835 4.44338257 -53.14133835 5.12338257 C-54.13133835 4.62838257 -54.13133835 4.62838257 -55.14133835 4.12338257 C-54.81133835 3.46338257 -54.48133835 2.80338257 -54.14133835 2.12338257 C-55.33758835 2.43275757 -56.53383835 2.74213257 -57.76633835 3.06088257 C-64.93904147 4.82549449 -64.93904147 4.82549449 -68.14133835 5.12338257 C-69.13133835 4.46338257 -70.12133835 3.80338257 -71.14133835 3.12338257 C-71.14133835 3.78338257 -71.14133835 4.44338257 -71.14133835 5.12338257 C-73.12133835 4.46338257 -75.10133835 3.80338257 -77.14133835 3.12338257 C-77.47133835 3.78338257 -77.80133835 4.44338257 -78.14133835 5.12338257 C-78.80133835 5.12338257 -79.46133835 5.12338257 -80.14133835 5.12338257 C-80.14133835 4.46338257 -80.14133835 3.80338257 -80.14133835 3.12338257 C-80.80133835 3.12338257 -81.46133835 3.12338257 -82.14133835 3.12338257 C-82.47133835 3.78338257 -82.80133835 4.44338257 -83.14133835 5.12338257 C-83.14133835 4.46338257 -83.14133835 3.80338257 -83.14133835 3.12338257 C-83.80133835 3.12338257 -84.46133835 3.12338257 -85.14133835 3.12338257 C-85.47133835 3.78338257 -85.80133835 4.44338257 -86.14133835 5.12338257 C-86.69821335 4.93775757 -87.25508835 4.75213257 -87.82883835 4.56088257 C-90.54047135 4.04787092 -92.48504874 4.45931017 -95.14133835 5.12338257 C-95.14133835 4.46338257 -95.14133835 3.80338257 -95.14133835 3.12338257 C-95.80133835 3.12338257 -96.46133835 3.12338257 -97.14133835 3.12338257 C-97.47133835 3.78338257 -97.80133835 4.44338257 -98.14133835 5.12338257 C-98.80133835 5.12338257 -99.46133835 5.12338257 -100.14133835 5.12338257 C-100.14133835 4.46338257 -100.14133835 3.80338257 -100.14133835 3.12338257 C-101.13133835 3.12338257 -102.12133835 3.12338257 -103.14133835 3.12338257 C-103.47133835 4.11338257 -103.80133835 5.10338257 -104.14133835 6.12338257 C-104.14133835 5.13338257 -104.14133835 4.14338257 -104.14133835 3.12338257 C-105.06946335 3.30900757 -105.99758835 3.49463257 -106.95383835 3.68588257 C-110.14133835 4.12338257 -110.14133835 4.12338257 -113.14133835 3.12338257 C-113.47133835 4.11338257 -113.80133835 5.10338257 -114.14133835 6.12338257 C-114.80133835 5.46338257 -115.46133835 4.80338257 -116.14133835 4.12338257 C-117.13133835 3.79338257 -118.12133835 3.46338257 -119.14133835 3.12338257 C-119.14133835 3.78338257 -119.14133835 4.44338257 -119.14133835 5.12338257 C-120.13133835 4.79338257 -121.12133835 4.46338257 -122.14133835 4.12338257 C-123.46133835 4.12338257 -124.78133835 4.12338257 -126.14133835 4.12338257 C-127.51874348 3.95445552 -128.89400474 3.76699351 -130.26633835 3.56088257 C-133.93034259 2.79091119 -133.93034259 2.79091119 -136.14133835 4.12338257 C-137.13133835 4.12338257 -138.12133835 4.12338257 -139.14133835 4.12338257 C-139.80133835 4.78338257 -140.46133835 5.44338257 -141.14133835 6.12338257 C-141.63633835 5.13338257 -141.63633835 5.13338257 -142.14133835 4.12338257 C-143.46133835 4.12338257 -144.78133835 4.12338257 -146.14133835 4.12338257 C-146.80133835 4.78338257 -147.46133835 5.44338257 -148.14133835 6.12338257 C-148.47133835 5.46338257 -148.80133835 4.80338257 -149.14133835 4.12338257 C-149.80133835 4.78338257 -150.46133835 5.44338257 -151.14133835 6.12338257 C-151.80133835 6.12338257 -152.46133835 6.12338257 -153.14133835 6.12338257 C-153.47133835 5.46338257 -153.80133835 4.80338257 -154.14133835 4.12338257 C-158.36012027 3.92716015 -161.31144729 4.32108089 -165.14133835 6.12338257 C-165.47133835 5.46338257 -165.80133835 4.80338257 -166.14133835 4.12338257 C-166.47133835 4.78338257 -166.80133835 5.44338257 -167.14133835 6.12338257 C-169.14133835 5.12338257 -171.14133835 4.12338257 -173.14133835 3.12338257 C-173.47133835 4.11338257 -173.80133835 5.10338257 -174.14133835 6.12338257 C-174.80133835 5.46338257 -175.46133835 4.80338257 -176.14133835 4.12338257 C-177.13133835 4.61838257 -177.13133835 4.61838257 -178.14133835 5.12338257 C-178.47133835 3.80338257 -178.80133835 2.48338257 -179.14133835 1.12338257 C-119.42799469 0.52818448 -59.71666546 0.01731343 0 0 Z " fill="#EDEEEC" transform="translate(1124.1413383483887,1393.8766174316406)"/>
<path d="M0 0 C111.54 0 223.08 0 338 0 C336 3 336 3 334 4 C334 3.34 334 2.68 334 2 C332.515 2.495 332.515 2.495 331 3 C328.66117862 2.70764733 326.32716 2.37400786 324 2 C319.46313823 2 314.96384987 2.4903696 310.4453125 2.87890625 C307.36779488 2.98707297 304.98001127 2.63552212 302 2 C301.34 2.33 300.68 2.66 300 3 C298.44747595 3.016157 296.89396312 2.96511107 295.34375 2.87890625 C294.40273437 2.83056641 293.46171875 2.78222656 292.4921875 2.73242188 C291.50476562 2.67634766 290.51734375 2.62027344 289.5 2.5625 C278.54403805 1.96449938 267.94385451 1.90619954 257.00390625 2.87890625 C254 3 254 3 251 2 C248.36383237 1.90320767 245.76034093 1.86075491 243.125 1.875 C242.41730469 1.87113281 241.70960938 1.86726562 240.98046875 1.86328125 C237.1778724 1.87036244 233.70587033 2.18651627 230 3 C227.05876341 3 224.45438041 2.85112207 221.5625 2.5 C214.62737307 1.77973459 207.16024593 1.12099001 200.30078125 2.5703125 C198 3 198 3 195 2 C193.65079366 1.90876762 192.29759813 1.86934622 190.9453125 1.8671875 C190.16542969 1.86589844 189.38554688 1.86460937 188.58203125 1.86328125 C187.77121094 1.86714844 186.96039062 1.87101563 186.125 1.875 C185.32191406 1.87113281 184.51882813 1.86726562 183.69140625 1.86328125 C179.63289041 1.86996744 175.98125265 2.14129845 172 3 C171.67 2.67 171.34 2.34 171 2 C169.32747651 1.91279172 167.65133201 1.89300595 165.9765625 1.90234375 C164.955625 1.90556641 163.9346875 1.90878906 162.8828125 1.91210938 C161.27019531 1.92467773 161.27019531 1.92467773 159.625 1.9375 C158.55765625 1.94201172 157.4903125 1.94652344 156.390625 1.95117188 C154.4057506 1.95992132 152.42088349 1.97071284 150.43603516 1.98413086 C148.62405416 1.9959347 146.81201944 2 145 2 C144.2363916 2.17402344 143.4727832 2.34804688 142.68603516 2.52734375 C139.62547262 3.06590484 137.11803155 2.86473013 134.0234375 2.5625 C126.4040847 1.93690562 118.8056901 1.91751699 111.1640625 1.9375 C109.28530426 1.94233398 109.28530426 1.94233398 107.36859131 1.94726562 C103.45403432 1.96111393 99.53952866 1.97971497 95.625 2 C90.42968942 2.02670457 85.23441618 2.04662279 80.0390625 2.0625 C78.27630478 2.07494751 78.27630478 2.07494751 76.47793579 2.08764648 C70.22670933 2.10621409 64.19696037 1.83425358 58 1 C57.67 1.66 57.34 2.32 57 3 C55.865625 2.835 54.73125 2.67 53.5625 2.5 C48.27308607 1.84351246 42.8224224 1.36975034 37.5859375 2.5390625 C34.6586822 3.06083913 32.25862878 2.85369622 29.3125 2.5 C25.51618496 1.90493537 25.51618496 1.90493537 22 3 C20.33333333 2.66666667 18.66666667 2.33333333 17 2 C16.01 2.495 16.01 2.495 15 3 C14.030625 2.814375 13.06125 2.62875 12.0625 2.4375 C8.83411844 1.62901364 8.83411844 1.62901364 6 4 C6 3.34 6 2.68 6 2 C4.35 2.66 2.7 3.32 1 4 C0.67 2.68 0.34 1.36 0 0 Z " fill="#EBECEA" transform="translate(1317,787)"/>
<path d="M0 0 C0.99 0 1.98 0 3 0 C3.33 0.66 3.66 1.32 4 2 C5.19226773 1.99886084 5.19226773 1.99886084 6.40862167 1.99769866 C53.47187721 1.95298501 100.53513046 1.91864841 147.59840297 1.89786934 C153.24382467 1.8953678 158.88924633 1.89277916 164.53466797 1.89013672 C165.6586145 1.8896121 166.78256104 1.88908748 167.94056655 1.88854696 C186.16189365 1.87983396 204.38320818 1.86405908 222.60452782 1.84569441 C241.28816172 1.82702022 259.97178902 1.81588855 278.65543187 1.81182301 C290.19298766 1.80907279 301.73050796 1.80037288 313.26805283 1.78416707 C321.16965212 1.77363078 329.07123293 1.77039172 336.97283874 1.77299725 C341.5380616 1.77428379 346.10322223 1.77225141 350.66843414 1.76158905 C354.84189253 1.75191232 359.01524637 1.75132844 363.18870939 1.75820221 C364.70421484 1.75905274 366.2197266 1.75646854 367.73521946 1.75023364 C369.78405561 1.74228982 371.83293086 1.74769406 373.88177299 1.75390434 C375.02321231 1.7531449 376.16465162 1.75238546 377.34068 1.75160301 C380 2 380 2 382 4 C256.6 4 131.2 4 2 4 C1.34 2.68 0.68 1.36 0 0 Z " fill="#EEEFED" transform="translate(1273,688)"/>
<path d="M0 0 C27.00816283 -0.2204056 53.99981644 0.40895972 81 1 C81.495 2.485 81.495 2.485 82 4 C81.34 4 80.68 4 80 4 C79.67 4.66 79.34 5.32 79 6 C78.01 5.01 78.01 5.01 77 4 C75.01853874 4.19175432 73.03494484 4.38972385 71.0703125 4.7109375 C67.92390426 5.15024733 65.06271716 5.01023954 61.9375 4.5 C57.69115698 3.96078184 53.62721933 3.96822688 49.35546875 4.0625 C47 4 47 4 45 3 C45 3.66 45 4.32 45 5 C44.34 5 43.68 5 43 5 C42.505 4.505 42.505 4.505 42 4 C41.34 4.66 40.68 5.32 40 6 C39.01 5.34 38.02 4.68 37 4 C35.02 4.99 35.02 4.99 33 6 C33 5.34 33 4.68 33 4 C30.69 4.66 28.38 5.32 26 6 C26 5.34 26 4.68 26 4 C25.01 4 24.02 4 23 4 C22.67 4.66 22.34 5.32 22 6 C22 5.34 22 4.68 22 4 C21.34 4 20.68 4 20 4 C19.67 4.66 19.34 5.32 19 6 C19 5.34 19 4.68 19 4 C18.34 4 17.68 4 17 4 C17 4.66 17 5.32 17 6 C15.66666667 5.33333333 14.33333333 4.66666667 13 4 C12.34 4.66 11.68 5.32 11 6 C10.4225 5.649375 9.845 5.29875 9.25 4.9375 C6.58590824 3.82746177 5.67998068 4.1354901 3 5 C2.01 5 1.02 5 0 5 C0 3.35 0 1.7 0 0 Z " fill="#E4E5E3" transform="translate(1302,1394)"/>
<path d="M0 0 C14.19 0 28.38 0 43 0 C43.495 1.485 43.495 1.485 44 3 C43.34 3 42.68 3 42 3 C41.67 3.66 41.34 4.32 41 5 C40.34 4.34 39.68 3.68 39 3 C37.01853874 3.19175432 35.03494484 3.38972385 33.0703125 3.7109375 C29.92390426 4.15024733 27.06271716 4.01023954 23.9375 3.5 C19.69115698 2.96078184 15.62721933 2.96822688 11.35546875 3.0625 C9 3 9 3 7 2 C7 2.66 7 3.32 7 4 C6.34 4 5.68 4 5 4 C4.67 3.67 4.34 3.34 4 3 C3.34 3.66 2.68 4.32 2 5 C1.01 4.01 0.02 3.02 -1 2 C-0.67 1.34 -0.34 0.68 0 0 Z " fill="#EDEEEC" transform="translate(1340,1395)"/>
<path d="M0 0 C3 1 3 1 4.1328125 3.1796875 C4.46023438 4.06914063 4.78765625 4.95859375 5.125 5.875 C5.45757813 6.75929688 5.79015625 7.64359375 6.1328125 8.5546875 C6.77416325 10.36318105 7.39320681 12.17962044 8 14 C7.01 13.67 6.02 13.34 5 13 C4.67 13.66 4.34 14.32 4 15 C3.34 14.67 2.68 14.34 2 14 C2.33 13.34 2.66 12.68 3 12 C1.02 12.99 1.02 12.99 -1 14 C-1.33 12.68 -1.66 11.36 -2 10 C-2.66 10 -3.32 10 -4 10 C-3.71125 9.46375 -3.4225 8.9275 -3.125 8.375 C-1.83288192 5.64719516 -0.91441408 2.87387282 0 0 Z " fill="#EEEEED" transform="translate(1023,1053)"/>
<path d="M0 0 C1.05078125 1.8515625 1.05078125 1.8515625 2 4 C1.1875 6.375 1.1875 6.375 0 9 C-0.34740923 10.99760305 -0.67966043 12.99787771 -1 15 C-1.6119268 17.35283482 -2.30121291 19.67070969 -3 22 C-3.66 21.34 -4.32 20.68 -5 20 C-5.66 20.66 -6.32 21.32 -7 22 C-6.67 22.66 -6.34 23.32 -6 24 C-7.32 23.67 -8.64 23.34 -10 23 C-6.71820878 15.30966925 -3.4203653 7.63004566 0 0 Z " fill="#DFE0DE" transform="translate(843,1012)"/>
<path d="M0 0 C8.72542301 -0.12852505 17.31008699 0.20354316 26 1 C25.34 2.32 24.68 3.64 24 5 C24 4.34 24 3.68 24 3 C21.36 3.66 18.72 4.32 16 5 C16 4.34 16 3.68 16 3 C15.01 3 14.02 3 13 3 C12.34 3.66 11.68 4.32 11 5 C11 4.34 11 3.68 11 3 C10.401875 3.165 9.80375 3.33 9.1875 3.5 C5.39140996 4.36767772 3.32652625 3.83532483 0 2 C0 1.34 0 0.68 0 0 Z " fill="#E9EAE8" transform="translate(1073,1394)"/>
<path d="M0 0 C3.42931954 3.7559214 4.56429083 8.23466745 6 13 C5.34 13 4.68 13 4 13 C3.5875 12.484375 3.175 11.96875 2.75 11.4375 C0.96317152 9.62434952 0.96317152 9.62434952 -2.1875 10.3125 C-3.5796875 10.6528125 -3.5796875 10.6528125 -5 11 C-4.731875 10.484375 -4.46375 9.96875 -4.1875 9.4375 C-2.67650593 6.33598585 -1.34427274 3.17737194 0 0 Z " fill="#EAEAE9" transform="translate(1024,626)"/>
<path d="M0 0 C1.65 0 3.3 0 5 0 C4.01 0.99 3.02 1.98 2 3 C3.32 2.67 4.64 2.34 6 2 C6 5 6 5 5 8 C6.65 7.67 8.3 7.34 10 7 C9.75 8.875 9.75 8.875 9 11 C6.953125 12.1328125 6.953125 12.1328125 5 13 C4.16209211 11.21046815 3.32980604 9.41830305 2.5 7.625 C1.80390625 6.12839844 1.80390625 6.12839844 1.09375 4.6015625 C0 2 0 2 0 0 Z " fill="#F1F2F0" transform="translate(1056,871)"/>
<path d="M0 0 C2.64 0.33 5.28 0.66 8 1 C7.814375 1.61875 7.62875 2.2375 7.4375 2.875 C6.76313824 5.04160178 6.76313824 5.04160178 8 7 C7.01 7 6.02 7 5 7 C4.67 7.66 4.34 8.32 4 9 C0 2.25 0 2.25 0 0 Z " fill="#E4E4E3" transform="translate(1185,1147)"/>
<path d="M0 0 C3 1 3 1 6 3 C6.6875 6.125 6.6875 6.125 7 9 C5.68 9.33 4.36 9.66 3 10 C0 3.375 0 3.375 0 0 Z " fill="#E7E8E6" transform="translate(1155,1081)"/>
<path d="M0 0 C4.88926174 5.67785235 4.88926174 5.67785235 5 9 C4.01 9.99 3.02 10.98 2 12 C0.68 8.7 -0.64 5.4 -2 2 C-1.34 2 -0.68 2 0 2 C0 1.34 0 0.68 0 0 Z " fill="#DCDDDB" transform="translate(1141,1047)"/>
<path d="M0 0 C2.95593077 4.43389615 1.91074606 7.99089665 1 13 C0.34 13 -0.32 13 -1 13 C-1.33 12.34 -1.66 11.68 -2 11 C-2.99 11 -3.98 11 -5 11 C-4.35474023 9.5414128 -3.7087728 8.08313863 -3.0625 6.625 C-2.70285156 5.81289062 -2.34320312 5.00078125 -1.97265625 4.1640625 C-1.3430097 2.76316215 -0.68687358 1.37374716 0 0 Z " fill="#E2E3E1" transform="translate(769,1593)"/>
<path d="M0 0 C0.99 1.32 1.98 2.64 3 4 C3.66 3.34 4.32 2.68 5 2 C4.67 4.31 4.34 6.62 4 9 C3.01 9.33 2.02 9.66 1 10 C0.01 7.36 -0.98 4.72 -2 2 C-1.34 1.34 -0.68 0.68 0 0 Z " fill="#F1F2F0" transform="translate(1044,840)"/>
<path d="M0 0 C1.32 0 2.64 0 4 0 C4.12375 0.78375 4.2475 1.5675 4.375 2.375 C4.79117993 5.14057822 4.79117993 5.14057822 7 7 C7 7.66 7 8.32 7 9 C6.34 9 5.68 9 5 9 C4.67 9.66 4.34 10.32 4 11 C3.32880451 9.5437455 2.66318193 8.08492133 2 6.625 C1.62875 5.81289063 1.2575 5.00078125 0.875 4.1640625 C0 2 0 2 0 0 Z " fill="#DDDEDC" transform="translate(1026,808)"/>
<path d="M0 0 C0.66 0 1.32 0 2 0 C2.33 1.65 2.66 3.3 3 5 C1.68 5 0.36 5 -1 5 C-0.67 5.99 -0.34 6.98 0 8 C-0.99 8.66 -1.98 9.32 -3 10 C-3 10.99 -3 11.98 -3 13 C-3.99 13 -4.98 13 -6 13 C-4.31326082 8.50202887 -2.18326108 4.27113698 0 0 Z " fill="#E5E6E4" transform="translate(980,721)"/>
<path d="M0 0 C1.75282525 2.68079156 2.01311136 3.86888639 1.6875 7.125 C1 10 1 10 0 12 C-1.32 11.67 -2.64 11.34 -4 11 C-2.95902388 7.13351728 -1.96301592 3.50538557 0 0 Z " fill="#DCDDDC" transform="translate(789,1128)"/>
<path d="M0 0 C0.66 0.33 1.32 0.66 2 1 C1.67 3.31 1.34 5.62 1 8 C0.34 7.34 -0.32 6.68 -1 6 C-1.66 6.66 -2.32 7.32 -3 8 C-2.67 8.66 -2.34 9.32 -2 10 C-3.32 9.67 -4.64 9.34 -6 9 C-5.34 7.35 -4.68 5.7 -4 4 C-3.01 4 -2.02 4 -1 4 C-0.67 2.68 -0.34 1.36 0 0 Z " fill="#E3E4E3" transform="translate(839,1026)"/>
<path d="M0 0 C1.32 0 2.64 0 4 0 C3.3125 2.875 3.3125 2.875 2 6 C-0.625 7.375 -0.625 7.375 -3 8 C-1.125 2.25 -1.125 2.25 0 0 Z " fill="#D7D8D7" transform="translate(772,1165)"/>
<path d="M0 0 C-0.44876616 1.64846769 -0.90930488 3.29373455 -1.375 4.9375 C-1.63023437 5.85402344 -1.88546875 6.77054688 -2.1484375 7.71484375 C-3 10 -3 10 -5 11 C-5 10.34 -5 9.68 -5 9 C-5.66 8.67 -6.32 8.34 -7 8 C-3.8 0 -3.8 0 0 0 Z " fill="#E3E4E2" transform="translate(992,872)"/>
<path d="M0 0 C1.125 1.75 1.125 1.75 2 4 C1.125 6.25 1.125 6.25 0 8 C-0.99 7.67 -1.98 7.34 -3 7 C-3.6875 4.9375 -3.6875 4.9375 -4 3 C-2.68 2.01 -1.36 1.02 0 0 Z " fill="#E4E5E4" transform="translate(1318,1419)"/>
<path d="M0 0 C0.99 0.33 1.98 0.66 3 1 C4.1875 4.5625 4.1875 4.5625 5 8 C3.02 7.34 1.04 6.68 -1 6 C-0.67 4.02 -0.34 2.04 0 0 Z " fill="#D2D3D1" transform="translate(1023,1053)"/>
<path d="M0 0 C0.66 0.33 1.32 0.66 2 1 C2.8125 3.875 2.8125 3.875 3 7 C2.01 7.99 1.02 8.98 0 10 C-0.99 7.36 -1.98 4.72 -3 2 C-2.01 2 -1.02 2 0 2 C0 1.34 0 0.68 0 0 Z " fill="#EEEFED" transform="translate(1381,922)"/>
<path d="M0 0 C0.66 0.99 1.32 1.98 2 3 C1.01 3.495 1.01 3.495 0 4 C0.12375 4.7425 0.2475 5.485 0.375 6.25 C0 9 0 9 -3 11.3125 C-3.99 11.869375 -4.98 12.42625 -6 13 C-1.45 1.45 -1.45 1.45 0 0 Z " fill="#E0E1DF" transform="translate(831,1463)"/>
<path d="M0 0 C3.44184294 1.14728098 4.08007717 2.03284654 6 5 C6.33 5.99 6.66 6.98 7 8 C6.01 8.66 5.02 9.32 4 10 C2.68 6.7 1.36 3.4 0 0 Z " fill="#E7E7E6" transform="translate(1117,1001)"/>
<path d="M0 0 C0.33 0.66 0.66 1.32 1 2 C1.66 2.33 2.32 2.66 3 3 C2.34 5.31 1.68 7.62 1 10 C0.34 10 -0.32 10 -1 10 C-2.15837626 5.94568308 -1.83691257 3.78187881 0 0 Z " fill="#E3E3E2" transform="translate(868,959)"/>
<path d="M0 0 C0.33 0.66 0.66 1.32 1 2 C1.99 2.33 2.98 2.66 4 3 C3.1875 4.9375 3.1875 4.9375 2 7 C1.01 7.33 0.02 7.66 -1 8 C-1.33 8.66 -1.66 9.32 -2 10 C-2.66 9.67 -3.32 9.34 -4 9 C-3.34 7.35 -2.68 5.7 -2 4 C-1.34 4 -0.68 4 0 4 C0 2.68 0 1.36 0 0 Z " fill="#DEDFDD" transform="translate(897,897)"/>
<path d="M0 0 C1.32 0 2.64 0 4 0 C5 2 6 4 7 6 C6.34 6 5.68 6 5 6 C5 6.66 5 7.32 5 8 C5.99 8.33 6.98 8.66 8 9 C6.68 9.33 5.36 9.66 4 10 C3.32845067 8.71086513 2.66291141 7.41859796 2 6.125 C1.62875 5.40570312 1.2575 4.68640625 0.875 3.9453125 C0 2 0 2 0 0 Z " fill="#E3E4E2" transform="translate(1351,864)"/>
<path d="M0 0 C0 3.86695678 -1.41909971 6.5088452 -3 10 C-3.33 9.34 -3.66 8.68 -4 8 C-4.66 7.67 -5.32 7.34 -6 7 C-5.34 6.34 -4.68 5.68 -4 5 C-4.66 4.01 -5.32 3.02 -6 2 C-5.38125 1.855625 -4.7625 1.71125 -4.125 1.5625 C-1.96741678 1.06847775 -1.96741678 1.06847775 0 0 Z " fill="#E3E4E2" transform="translate(736,775)"/>
<path d="M0 0 C1.5357777 5.1410431 -0.6206651 8.41128269 -3 13 C-3.66 13 -4.32 13 -5 13 C-4.39254603 8.14036821 -2.27241033 4.2594482 0 0 Z " fill="#C5C6C4" transform="translate(703,1312)"/>
<path d="M0 0 C0.33 0.66 0.66 1.32 1 2 C1.99 2.33 2.98 2.66 4 3 C3.01 4.485 3.01 4.485 2 6 C1.34 6 0.68 6 0 6 C-0.33 6.99 -0.66 7.98 -1 9 C-1.66 8.67 -2.32 8.34 -3 8 C-1.125 2.25 -1.125 2.25 0 0 Z " fill="#D9DAD8" transform="translate(959,1189)"/>
<path d="M0 0 C0.99 0.66 1.98 1.32 3 2 C1.68 4.97 0.36 7.94 -1 11 C-1.66 10.34 -2.32 9.68 -3 9 C-2.01 6.03 -1.02 3.06 0 0 Z " fill="#E5E6E5" transform="translate(494,1311)"/>
<path d="M0 0 C1.32 0 2.64 0 4 0 C3.34 1.98 2.68 3.96 2 6 C1.01 5.67 0.02 5.34 -1 5 C-0.67 4.34 -0.34 3.68 0 3 C-0.66 2.67 -1.32 2.34 -2 2 C-1.34 1.34 -0.68 0.68 0 0 Z " fill="#E6E6E5" transform="translate(1002,1265)"/>
<path d="M0 0 C2.1385485 2.1385485 2.42655063 3.13275314 3 6 C1.35 6.33 -0.3 6.66 -2 7 C-1.34 4.69 -0.68 2.38 0 0 Z M-3 7 C-2.67 7.99 -2.34 8.98 -2 10 C-2.66 10 -3.32 10 -4 10 C-3.67 9.01 -3.34 8.02 -3 7 Z " fill="#D7D8D6" transform="translate(929,1253)"/>
<path d="M0 0 C2 4 2 4 1.8125 6.0625 C0.89199398 8.25755282 -0.21596223 9.44866281 -2 11 C-2.66 10.67 -3.32 10.34 -4 10 C-2.68 6.7 -1.36 3.4 0 0 Z " fill="#DDDEDD" transform="translate(747,1218)"/>
<path d="M0 0 C0.99 1.32 1.98 2.64 3 4 C1.10646634 5.89353366 -0.84526801 7.4198632 -3 9 C-3.33 8.34 -3.66 7.68 -4 7 C-3.22265625 5.2734375 -3.22265625 5.2734375 -2.0625 3.375 C-1.381875 2.26125 -0.70125 1.1475 0 0 Z " fill="#DFE0DE" transform="translate(864,969)"/>
<path d="M0 0 C2 2 2 2 2 5 C1.0022242 7.99332739 0.2477975 8.94766315 -2 11 C-2.66 10.67 -3.32 10.34 -4 10 C-2.68 6.7 -1.36 3.4 0 0 Z " fill="#D9DAD8" transform="translate(1008,659)"/>
<path d="M0 0 C2.62386487 3.06117568 3 3.73173127 3 8 C2.34 8 1.68 8 1 8 C0.67 7.34 0.34 6.68 0 6 C-0.99 6.495 -0.99 6.495 -2 7 C-1.125 1.125 -1.125 1.125 0 0 Z " fill="#CACBC9" transform="translate(1024,626)"/>
<path d="M0 0 C3 3.75 3 3.75 3 6 C2.01 6.33 1.02 6.66 0 7 C-1.37195574 8.29355827 -2.71182656 9.62298702 -4 11 C-2.7874262 7.27566618 -1.49140021 3.62197194 0 0 Z " fill="#D6D7D6" transform="translate(630,1468)"/>
<path d="M0 0 C0.33 0.66 0.66 1.32 1 2 C1.66 2.33 2.32 2.66 3 3 C2.01 3 1.02 3 0 3 C0.33 3.99 0.66 4.98 1 6 C-0.3125 8.6875 -0.3125 8.6875 -2 11 C-2.66 11 -3.32 11 -4 11 C-3.52269162 9.5410574 -3.04308958 8.08286504 -2.5625 6.625 C-2.29566406 5.81289062 -2.02882813 5.00078125 -1.75390625 4.1640625 C-1 2 -1 2 0 0 Z " fill="#CECFCD" transform="translate(939,1231)"/>
<path d="M0 0 C1.61949011 2.57213134 2.04408751 3.67669159 1.625 6.75 C1.41875 7.4925 1.2125 8.235 1 9 C-0.32 8.67 -1.64 8.34 -3 8 C-2.01 5.36 -1.02 2.72 0 0 Z " fill="#EBEBEA" transform="translate(811,1081)"/>
<path d="M0 0 C0.99 0.33 1.98 0.66 3 1 C1.02 5.455 1.02 5.455 -1 10 C-1.66 8.68 -2.32 7.36 -3 6 C-1.625 2.75 -1.625 2.75 0 0 Z " fill="#E6E7E6" transform="translate(966,922)"/>
<path d="M0 0 C-0.75 4.75 -0.75 4.75 -3 7 C-3.66 6.34 -4.32 5.68 -5 5 C-4.75 2.9375 -4.75 2.9375 -4 1 C-2 0 -2 0 0 0 Z " fill="#EDEEED" transform="translate(643,1615)"/>
<path d="M0 0 C2.97 0 5.94 0 9 0 C9 0.66 9 1.32 9 2 C8.34 2 7.68 2 7 2 C6.67 2.99 6.34 3.98 6 5 C4.02 4.01 2.04 3.02 0 2 C0 1.34 0 0.68 0 0 Z " fill="#DBDCDA" transform="translate(1073,1394)"/>
<path d="M0 0 C0.66 1.32 1.32 2.64 2 4 C1.67 4.99 1.34 5.98 1 7 C-1.5625 8.1875 -1.5625 8.1875 -4 9 C-2.68 6.03 -1.36 3.06 0 0 Z " fill="#EEEFED" transform="translate(725,1267)"/>
<path d="M0 0 C1.125 3.3125 1.125 3.3125 2 7 C1.01 8.485 1.01 8.485 0 10 C-0.99 7.03 -1.98 4.06 -3 1 C-1 0 -1 0 0 0 Z " fill="#D6D6D5" transform="translate(1203,1177)"/>
<path d="M0 0 C0.33 0.66 0.66 1.32 1 2 C1.66 2 2.32 2 3 2 C3.33 2.99 3.66 3.98 4 5 C3.01 5 2.02 5 1 5 C1 5.66 1 6.32 1 7 C0.01 7 -0.98 7 -2 7 C-1.34 4.69 -0.68 2.38 0 0 Z " fill="#DBDCDA" transform="translate(987,1129)"/>
<path d="M0 0 C1.98 0.495 1.98 0.495 4 1 C2.515 4.465 2.515 4.465 1 8 C0.34 8 -0.32 8 -1 8 C-0.67 5.36 -0.34 2.72 0 0 Z " fill="#E7E7E6" transform="translate(576,1127)"/>
<path d="M0 0 C0.99 0.99 1.98 1.98 3 3 C0.9927092 6.0109362 0.16115776 6.63016497 -3 8 C-2.37240135 5.07120629 -1.41377341 2.63904371 0 0 Z " fill="#E7E8E6" transform="translate(1016,1069)"/>
<path d="M0 0 C0.33 0.66 0.66 1.32 1 2 C0.22265625 3.9453125 0.22265625 3.9453125 -0.9375 6.125 C-1.31777344 6.84945312 -1.69804688 7.57390625 -2.08984375 8.3203125 C-2.39019531 8.87460937 -2.69054687 9.42890625 -3 10 C-3.99 9.34 -4.98 8.68 -6 8 C-4.55746343 4.63408134 -2.66735273 2.48952921 0 0 Z " fill="#DADBD9" transform="translate(690,878)"/>
<path d="M0 0 C0.99 0.33 1.98 0.66 3 1 C2.01 2.98 1.02 4.96 0 7 C-0.99 6.67 -1.98 6.34 -3 6 C-2.01 4.02 -1.02 2.04 0 0 Z " fill="#E3E4E3" transform="translate(991,1292)"/>
<path d="M0 0 C0.66 0.66 1.32 1.32 2 2 C1.01 4.64 0.02 7.28 -1 10 C-3 7 -3 7 -2.625 4.3125 C-2.41875 3.549375 -2.2125 2.78625 -2 2 C-1.34 2 -0.68 2 0 2 C0 1.34 0 0.68 0 0 Z " fill="#E2E3E2" transform="translate(568,1148)"/>
<path d="M0 0 C1.98 0.66 3.96 1.32 6 2 C5.42655063 4.86724686 5.1385485 5.8614515 3 8 C2.01 5.36 1.02 2.72 0 0 Z " fill="#EFF0EE" transform="translate(1181,1138)"/>
<path d="M0 0 C0.66 0.33 1.32 0.66 2 1 C2.625 3.0625 2.625 3.0625 3 5 C1.02 5.99 1.02 5.99 -1 7 C-1.625 4.625 -1.625 4.625 -2 2 C-1.34 1.34 -0.68 0.68 0 0 Z " fill="#F1F2F1" transform="translate(1459,1098)"/>
<path d="M0 0 C0 3.20395416 -0.74335022 5.09399739 -2 8 C-2.66 7.34 -3.32 6.68 -4 6 C-3.625 3.375 -3.625 3.375 -3 1 C-2.01 0.67 -1.02 0.34 0 0 Z " fill="#DFE0DE" transform="translate(599,1082)"/>
<path d="M0 0 C1.25 1.5625 1.25 1.5625 2 4 C0.93237266 6.57001015 -0.46544943 8.6530403 -2 11 C-2.66 11 -3.32 11 -4 11 C-3.71125 10.29875 -3.4225 9.5975 -3.125 8.875 C-1.97866412 5.94547497 -0.97374346 2.99078347 0 0 Z " fill="#D8D9D7" transform="translate(843,1012)"/>
<path d="M0 0 C2 2 2 2 4 5 C3.34 5 2.68 5 2 5 C2 5.66 2 6.32 2 7 C1.34 7 0.68 7 0 7 C-0.66 5.02 -1.32 3.04 -2 1 C-1.34 0.67 -0.68 0.34 0 0 Z " fill="#E2E2E1" transform="translate(1354,1502)"/>
<path d="M0 0 C0.99 0.33 1.98 0.66 3 1 C1.68 3.64 0.36 6.28 -1 9 C-1.66 8.67 -2.32 8.34 -3 8 C-2.67 6.68 -2.34 5.36 -2 4 C-1.34 4 -0.68 4 0 4 C0 2.68 0 1.36 0 0 Z " fill="#F2F2F1" transform="translate(699,1491)"/>
<path d="M0 0 C0.66 0 1.32 0 2 0 C2.66 1.65 3.32 3.3 4 5 C3.01 5.33 2.02 5.66 1 6 C1 5.34 1 4.68 1 4 C0.34 4 -0.32 4 -1 4 C-1.33 4.66 -1.66 5.32 -2 6 C-2 5.01 -2 4.02 -2 3 C-1.34 3 -0.68 3 0 3 C0 2.01 0 1.02 0 0 Z " fill="#E2E3E1" transform="translate(1226,1485)"/>
<path d="M0 0 C2 2 2 2 2 6 C0.35 6.66 -1.3 7.32 -3 8 C-1.125 2.25 -1.125 2.25 0 0 Z " fill="#E1E2E0" transform="translate(845,1432)"/>
<path d="M0 0 C2.64 0.33 5.28 0.66 8 1 C7.01 2.485 7.01 2.485 6 4 C5.34 3.67 4.68 3.34 4 3 C4 3.66 4 4.32 4 5 C1.48916886 3.74458443 1.12874554 2.49936512 0 0 Z " fill="#E0E1DF" transform="translate(1147,1394)"/>
<path d="M0 0 C1.32 0.33 2.64 0.66 4 1 C4.33 2.32 4.66 3.64 5 5 C4.01 4.67 3.02 4.34 2 4 C2.33 3.34 2.66 2.68 3 2 C2.34 2 1.68 2 1 2 C0.67 3.65 0.34 5.3 0 7 C-0.66 5.68 -1.32 4.36 -2 3 C-1.34 3 -0.68 3 0 3 C0 2.01 0 1.02 0 0 Z " fill="#E7E8E6" transform="translate(1588,1385)"/>
<path d="M0 0 C1.32 0.33 2.64 0.66 4 1 C3.34 3.31 2.68 5.62 2 8 C0 6 0 6 -0.125 2.875 C-0.08375 1.92625 -0.0425 0.9775 0 0 Z " fill="#EBEBEA" transform="translate(798,1276)"/>
<path d="M0 0 C1.77706209 2.66559313 2.87548273 5.0280615 4 8 C2.35 7.67 0.7 7.34 -1 7 C-1.04254356 5.00045254 -1.04080783 2.99958364 -1 1 C-0.67 0.67 -0.34 0.34 0 0 Z " fill="#E3E4E2" transform="translate(1230,1068)"/>
<path d="M0 0 C0.66 0 1.32 0 2 0 C3.32 2.64 4.64 5.28 6 8 C2 7 2 7 0.75 5.125 C0 3 0 3 0 0 Z " fill="#DADBDA" transform="translate(1128,1024)"/>
<path d="M0 0 C0.66 0.33 1.32 0.66 2 1 C1.67 2.98 1.34 4.96 1 7 C-0.32 7.33 -1.64 7.66 -3 8 C-1.125 2.25 -1.125 2.25 0 0 Z " fill="#D9DAD8" transform="translate(901,889)"/>
<path d="M0 0 C4.29 0 8.58 0 13 0 C13 0.33 13 0.66 13 1 C8.20862412 2.6290678 4.94367454 3.20577428 0 2 C0 1.34 0 0.68 0 0 Z " fill="#E4E5E3" transform="translate(1333,787)"/>
<path d="M0 0 C1.32 0.33 2.64 0.66 4 1 C4.625 3.375 4.625 3.375 5 6 C4.34 6.66 3.68 7.32 3 8 C0 2.25 0 2.25 0 0 Z " fill="#D6D6D5" transform="translate(1661,1557)"/>
<path d="M0 0 C0.33 0.66 0.66 1.32 1 2 C1.66 2 2.32 2 3 2 C3 3.32 3 4.64 3 6 C1.35 6.33 -0.3 6.66 -2 7 C-1.34 4.69 -0.68 2.38 0 0 Z " fill="#E2E3E1" transform="translate(804,1519)"/>
<path d="M0 0 C0.66 0.33 1.32 0.66 2 1 C2 2.98 2 4.96 2 7 C0.68 6.67 -0.64 6.34 -2 6 C-1.49396008 3.83125748 -1.00016187 2.00032373 0 0 Z " fill="#E6E7E5" transform="translate(621,1489)"/>
<path d="M0 0 C2.9375 0.75 2.9375 0.75 6 2 C6.875 4.125 6.875 4.125 7 6 C4.525 5.01 4.525 5.01 2 4 C2 3.34 2 2.68 2 2 C1.34 2 0.68 2 0 2 C0 1.34 0 0.68 0 0 Z " fill="#C6C7C5" transform="translate(1181,1394)"/>
<path d="M0 0 C2 4 2 4 1.625 6.25 C1.41875 6.8275 1.2125 7.405 1 8 C-0.32 8.33 -1.64 8.66 -3 9 C-2.01 6.03 -1.02 3.06 0 0 Z " fill="#CECFCD" transform="translate(804,1096)"/>
<path d="M0 0 C0.66 0 1.32 0 2 0 C1.34 2.31 0.68 4.62 0 7 C-0.99 6.67 -1.98 6.34 -3 6 C-2.01 4.02 -1.02 2.04 0 0 Z " fill="#E5E6E4" transform="translate(618,1036)"/>
<path d="M0 0 C0.99 0.33 1.98 0.66 3 1 C2 4 2 4 -0.0625 5.1875 C-0.701875 5.455625 -1.34125 5.72375 -2 6 C-2.33 4.68 -2.66 3.36 -3 2 C-2.01 1.34 -1.02 0.68 0 0 Z " fill="#EBECEB" transform="translate(1063,878)"/>
<path d="M0 0 C0.99 0.33 1.98 0.66 3 1 C2.34 2.65 1.68 4.3 1 6 C-0.32 5.67 -1.64 5.34 -3 5 C-2.67 4.34 -2.34 3.68 -2 3 C-1.34 3 -0.68 3 0 3 C-0.66 2.34 -1.32 1.68 -2 1 C-1.34 0.67 -0.68 0.34 0 0 Z " fill="#D6D7D5" transform="translate(1004,840)"/>
<path d="M0 0 C0.99 0 1.98 0 3 0 C5.125 4.625 5.125 4.625 4 8 C2.22293791 5.33440687 1.12451727 2.9719385 0 0 Z " fill="#EDEEEC" transform="translate(1327,810)"/>
<path d="M0 0 C0.66 0.99 1.32 1.98 2 3 C1.125 5.6875 1.125 5.6875 0 8 C-0.99 8 -1.98 8 -3 8 C-2.01 5.36 -1.02 2.72 0 0 Z " fill="#D5D6D4" transform="translate(945,794)"/>
<path d="M0 0 C0.66 0.33 1.32 0.66 2 1 C2 1.99 2 2.98 2 4 C1.01 4.495 1.01 4.495 0 5 C-0.33 5.66 -0.66 6.32 -1 7 C-1.66 7 -2.32 7 -3 7 C-1.125 1.125 -1.125 1.125 0 0 Z " fill="#D2D3D2" transform="translate(752,1631)"/>
<path d="M0 0 C2 3 2 3 1.625 5.1875 C1.41875 5.785625 1.2125 6.38375 1 7 C-0.32 7.33 -1.64 7.66 -3 8 C-2.01 5.36 -1.02 2.72 0 0 Z " fill="#D8D9D7" transform="translate(756,1621)"/>
<path d="M0 0 C0.99 0.33 1.98 0.66 3 1 C2.01 2.98 1.02 4.96 0 7 C-0.66 6.67 -1.32 6.34 -2 6 C-1.34 4.02 -0.68 2.04 0 0 Z " fill="#E6E7E5" transform="translate(687,1517)"/>
<path d="M0 0 C2 3 2 3 1.625 5.6875 C1.41875 6.450625 1.2125 7.21375 1 8 C-1.35953094 5.64046906 -1.49141413 4.22104383 -2 1 C-1.34 0.67 -0.68 0.34 0 0 Z " fill="#D7D8D7" transform="translate(1606,1427)"/>
<path d="M0 0 C0.66 0.33 1.32 0.66 2 1 C1.34 3.31 0.68 5.62 0 8 C-0.99 7.34 -1.98 6.68 -3 6 C-2.01 4.02 -1.02 2.04 0 0 Z " fill="#DDDDDC" transform="translate(743,1398)"/>
<path d="M0 0 C0.598125 0.20625 1.19625 0.4125 1.8125 0.625 C1.8125 1.285 1.8125 1.945 1.8125 2.625 C1.1525 2.625 0.4925 2.625 -0.1875 2.625 C-0.1875 3.615 -0.1875 4.605 -0.1875 5.625 C-0.8475 5.625 -1.5075 5.625 -2.1875 5.625 C-2.1875 4.635 -2.1875 3.645 -2.1875 2.625 C-3.1775 2.295 -4.1675 1.965 -5.1875 1.625 C-2.1875 -0.375 -2.1875 -0.375 0 0 Z " fill="#E0E1DF" transform="translate(1177.1875,1394.375)"/>
<path d="M0 0 C2.31 0 4.62 0 7 0 C7 0.66 7 1.32 7 2 C6.34 2 5.68 2 5 2 C4.67 2.66 4.34 3.32 4 4 C3.34 4 2.68 4 2 4 C1.34 2.68 0.68 1.36 0 0 Z " fill="#EFF0EE" transform="translate(1140,1395)"/>
<path d="M0 0 C0.66 0.33 1.32 0.66 2 1 C1.67 3.31 1.34 5.62 1 8 C0.01 7.01 -0.98 6.02 -2 5 C-1.34 3.35 -0.68 1.7 0 0 Z " fill="#EAEBE9" transform="translate(922,1268)"/>
<path d="M0 0 C0 3 0 3 0 3 Z M-4 1 C-2.35 2.32 -0.7 3.64 1 5 C-0.98 5.99 -0.98 5.99 -3 7 C-3.33 5.02 -3.66 3.04 -4 1 Z " fill="#F0F1EF" transform="translate(1658,1258)"/>
<path d="M0 0 C0.33 0.66 0.66 1.32 1 2 C1.66 2.33 2.32 2.66 3 3 C2.34 3 1.68 3 1 3 C0.67 4.65 0.34 6.3 0 8 C-0.66 7.67 -1.32 7.34 -2 7 C-1.34 4.69 -0.68 2.38 0 0 Z " fill="#D5D6D5" transform="translate(934,1242)"/>
<path d="M0 0 C0.99 0.33 1.98 0.66 3 1 C4 4 4 4 3.0625 6.1875 C2.5365625 7.0846875 2.5365625 7.0846875 2 8 C0.74335022 5.09399739 0 3.20395416 0 0 Z " fill="#D5D6D5" transform="translate(1155,1081)"/>
<path d="M0 0 C0.99 0.33 1.98 0.66 3 1 C2.34 2.98 1.68 4.96 1 7 C0.01 7 -0.98 7 -2 7 C-2 6.01 -2 5.02 -2 4 C-1.34 4 -0.68 4 0 4 C0 2.68 0 1.36 0 0 Z " fill="#EFF0EE" transform="translate(600,1074)"/>
<path d="M0 0 C1.76462683 3.08809695 2 4.23312136 2 8 C1.34 7.34 0.68 6.68 0 6 C-0.99 6.495 -0.99 6.495 -2 7 C-1.42415568 4.61435923 -0.77772405 2.33317216 0 0 Z " fill="#D7D8D6" transform="translate(1033,1071)"/>
<path d="M0 0 C0.99 0.33 1.98 0.66 3 1 C1.515 4.465 1.515 4.465 0 8 C-0.66 7.34 -1.32 6.68 -2 6 C-1.34 4.02 -0.68 2.04 0 0 Z " fill="#EBECEB" transform="translate(927,1004)"/>
<path d="M0 0 C0.99 0.33 1.98 0.66 3 1 C2.42655063 3.86724686 2.1385485 4.8614515 0 7 C-0.93423645 3.98968256 -1.04449911 3.13349732 0 0 Z " fill="#DDDDDC" transform="translate(638,989)"/>
<path d="M0 0 C0.66 0 1.32 0 2 0 C2 0.66 2 1.32 2 2 C2.66 2 3.32 2 4 2 C3.34 3.32 2.68 4.64 2 6 C1.34 4.02 0.68 2.04 0 0 Z M4 0 C4.66 0 5.32 0 6 0 C6 0.66 6 1.32 6 2 C5.34 2 4.68 2 4 2 C4 1.34 4 0.68 4 0 Z " fill="#DFE0DE" transform="translate(1204,533)"/>
</svg>
